<?xml version="1.0" encoding="UTF-8"?>
<svg width="570px" height="866px" viewBox="0 0 570 866" version="1.1" xmlns="http://www.w3.org/2000/svg" xmlns:xlink="http://www.w3.org/1999/xlink">
    <!-- Generator: Sketch 51 (57462) - http://www.bohemiancoding.com/sketch -->
    <title>Group 661 Copy</title>
    <desc>Created with Sketch.</desc>
    <defs>
        <polygon id="path-1" points="0.568 0.1154 71.787 0.1154 71.787 55 0.568 55"></polygon>
        <polygon id="path-3" points="0.4615 0.11 142.9275 0.11 142.9275 52.8265 0.4615 52.8265"></polygon>
    </defs>
    <g id="Website" stroke="none" stroke-width="1" fill="none" fill-rule="evenodd">
        <g id="Project-2" transform="translate(-546.000000, -143.000000)">
            
            <g id="Group-2" transform="translate(628.000000, 215.000000)">
                <g id="Group-661-Copy" transform="translate(203.000000, 361.000000) scale(-1, 1) translate(-203.000000, -361.000000) translate(-82.000000, -72.000000)">
                    <path d="M54.016,733.072 C54.006,733.316 54,733.561 54,733.808 C54,734.056 54.006,734.301 54.016,734.547 L54.016,751.616 L71.808,751.616 C81.644,751.616 89.616,743.644 89.616,733.808 C89.616,723.974 81.644,716 71.808,716 L54.016,716 L54.016,733.072 Z" id="Fill-635" fill="#FFFFFF"></path>
                    <path d="M53.072,217.601 C53.316,217.611 53.562,217.617 53.808,217.617 C54.055,217.617 54.301,217.611 54.547,217.601 L71.617,217.601 L71.617,199.809 C71.617,189.973 63.644,182 53.808,182 C43.973,182 36,189.973 36,199.809 L36,217.601 L53.072,217.601 Z" id="Fill-637" fill="#519032"></path>
                    <path d="M17.9092,514.2407 C27.7442,514.2407 35.7182,522.2137 35.7182,532.0487 C35.7182,541.8837 27.7442,549.8577 17.9092,549.8577 C8.0752,549.8577 0.1012,541.8837 0.1012,532.0487 C0.1012,522.2137 8.0752,514.2407 17.9092,514.2407" id="Fill-639" fill="#FFFFFF"></path>
                    <path d="M394.809,526.714 C404.643,526.714 412.617,534.687 412.617,544.522 C412.617,554.357 404.643,562.331 394.809,562.331 C384.974,562.331 377,554.357 377,544.522 C377,534.687 384.974,526.714 394.809,526.714" id="Fill-641" fill="#FFFFFF"></path>
                    <path d="M491.85,865.221 C491.842,845.557 475.9,829.618 456.233,829.618 C436.568,829.618 420.624,845.557 420.617,865.221 L385,865.221 C385.008,825.885 416.897,794 456.233,794 C495.569,794 527.459,825.885 527.467,865.221 L491.85,865.221 Z" id="Fill-643" fill="#519032"></path>
                    <g id="Group-647" transform="translate(141.000000, 800.000000)">
                        <mask id="mask-2" fill="white">
                            <use xlink:href="#path-1"></use>
                        </mask>
                        <g id="Clip-646"></g>
                        <path d="M71.787,35.7314 C52.123,35.7404 36.184,51.6824 36.184,71.3484 C36.184,91.0144 52.123,106.9564 71.787,106.9654 L71.787,142.5814 C32.451,142.5744 0.568,110.6854 0.568,71.3484 C0.568,32.0114 32.451,0.1224 71.787,0.1154 L71.787,35.7314 Z" id="Fill-645" fill="#519032" mask="url(#mask-2)"></path>
                    </g>
                    <path d="M151.218,471.617 C131.555,471.626 115.616,487.568 115.616,507.234 C115.616,526.9 131.555,542.842 151.218,542.85 L151.218,578.467 C111.883,578.46 80,546.571 80,507.234 C80,467.896 111.883,436.009 151.218,436 L151.218,471.617 Z" id="Fill-650" fill="#80B439"></path>
                    <path d="M453,577 L453,612.617 L470.798,612.617 L470.809,612.617 C475.65,612.617 480.04,614.549 483.251,617.686 C486.531,620.889 488.577,625.347 488.616,630.285 C488.618,630.344 488.618,630.391 488.618,630.426 L488.618,639.331 L524.235,639.331 L524.235,630.426 C524.235,597.692 502.854,577 470.809,577 L453,577 Z" id="Fill-652" fill="#FFFFFF"></path>
                    <path d="M354,106.85 C373.664,106.841 389.604,90.899 389.604,71.233 C389.604,51.567 373.665,35.623 354,35.616 L354,0 C393.335,0.007 425.221,31.896 425.221,71.233 C425.22,110.569 393.335,142.459 354,142.467 L354,106.85 Z" id="Fill-654" fill="#FFFFFF"></path>
                    <g id="Group-658" transform="translate(81.000000, 45.000000)">
                        <mask id="mask-4" fill="white">
                            <use xlink:href="#path-3"></use>
                        </mask>
                        <g id="Clip-657"></g>
                        <path d="M36.0775,-18.3925 C36.0845,1.2715 52.0275,17.2085 71.6925,17.2085 C91.3595,17.2085 107.3015,1.2715 107.3095,-18.3925 L142.9275,-18.3925 C142.9185,20.9425 111.0285,52.8265 71.6925,52.8265 C32.3575,52.8265 0.4685,20.9425 0.4615,-18.3925 L36.0775,-18.3925 Z" id="Fill-656" fill="#80B439" mask="url(#mask-4)"></path>
                    </g>
                    <path d="M533.85,285.22 C533.842,265.556 517.901,249.617 498.234,249.617 C478.568,249.617 462.624,265.555 462.618,285.219 L427,285.219 C427.007,245.885 458.897,214 498.234,214 C537.569,214.001 569.459,245.885 569.467,285.22 L533.85,285.22 Z" id="Fill-659" fill="#80B439"></path>
                </g>
            </g>
        </g>
    </g>
</svg>