<svg width="90" height="138" viewBox="0 0 90 138" fill="none" xmlns="http://www.w3.org/2000/svg">
<rect width="88.6391" height="137.171" fill="black" fill-opacity="0" transform="translate(0.585938 0.284058)"/>
<path d="M84.7561 64.2536C84.715 64.2487 84.6754 64.2355 84.6396 64.2149C84.6608 64.1935 84.6883 64.1797 84.7181 64.1755C84.7181 64.1368 84.6789 64.1368 84.6789 64.0981H84.6396C84.6293 64.0982 84.6193 64.094 84.6122 64.0866C84.605 64.0791 84.6011 64.0691 84.6016 64.0587V64.4878L84.6789 64.4098C84.6803 64.3488 84.7085 64.2916 84.7561 64.2536Z" fill="white"/>
<path fill-rule="evenodd" clip-rule="evenodd" d="M44.867 137.455C44.2342 137.455 43.6404 137.435 43.0857 137.395C33.1561 136.68 18.867 134.311 9.50762 122.057C0.421683 110.16 -1.73457 91.5227 3.08575 66.6635C11.4373 23.6612 27.4295 1.34427 50.617 0.332311C68.0232 -0.437708 82.0467 8.0546 87.2107 22.4715C92.9295 38.4391 86.2342 56.7105 70.1404 69.2376C76.8201 79.1105 82.2811 89.5193 82.4607 99.7764C82.6717 111.159 79.2264 120.301 72.2264 126.949C63.9529 134.808 52.0076 137.455 44.867 137.455ZM6.90606 67.4086C2.3045 91.1247 4.21856 108.713 12.6014 119.686C20.9998 130.692 34.1873 132.843 43.367 133.505C47.5857 133.805 60.5076 132.715 69.5545 124.119C75.7264 118.255 78.7576 110.088 78.5779 99.8461C78.3357 86.1955 67.3045 71.4948 57.5701 58.5253C48.3201 46.1995 40.3357 35.5539 42.3514 27.2166C43.1951 23.7277 45.7576 20.9301 49.9529 18.9007C60.7264 13.6859 67.8279 18.6156 70.6248 24.4215C74.7342 32.9323 71.6561 45.2815 59.7107 52.1971C60.5311 53.3411 61.7732 55.1169 63.617 57.812C64.9764 59.7979 66.6639 62.2828 68.7342 65.3817C82.7576 53.9472 88.5701 37.8125 83.5545 23.7892C78.9842 11.0407 66.4139 3.54813 50.7889 4.22867C29.6326 5.15226 14.867 26.4091 6.90606 67.4086ZM51.6404 22.4136C53.7654 21.3108 56.1092 20.7028 58.492 20.6349C62.2029 20.5782 65.5936 22.7326 67.1248 26.1203C70.0857 32.2498 68.5779 43.6425 55.9607 49.781C49.6795 41.1922 44.8592 33.4032 46.1326 28.1364C46.7029 25.8047 48.4998 23.9328 51.6404 22.4136Z" fill="white"/>
<path d="M45.6484 100.274C45.6484 100.274 65.657 111.366 66.0493 95.7903C70.4434 95.633 69.031 101.769 69.031 101.769C69.031 101.769 66.3632 112.861 45.6484 100.274Z" fill="white"/>
<path d="M30.3516 95.9606C30.3516 95.9606 36.5722 94.2336 49.8749 102.677C63.1775 111.12 68.7283 108.338 68.7283 108.338C68.7283 108.338 67.2928 114.383 58.4882 111.6C49.6836 108.818 41.6445 97.3999 30.3516 95.9606Z" fill="white"/>
<path d="M9.58594 102.005C9.58594 102.005 18.2949 91.547 33.4159 98.5512C48.5369 105.555 53.2263 112.08 55.3317 112.176C57.4372 112.272 50.1638 113.711 44.9959 109.585C39.8279 105.459 30.3534 100.182 26.9081 99.6066C24.5462 99.212 14.1797 98.2634 9.58594 102.005Z" fill="white"/>
<path d="M11.5938 104.02C17.575 100.674 24.8912 100.821 30.7342 104.404C41.0701 110.449 51.2145 118.221 58.5837 113.903C64.9958 113.999 66.4313 116.014 71.4078 108.53L74.8531 106.803C74.8531 106.803 68.5367 127.815 46.4295 129.159C24.3222 130.502 13.6035 110.641 13.6035 110.641C13.6035 110.641 17.7844 106.972 26.3319 109.297C32.4018 110.949 41.3526 117.811 47.4821 118.7C55.4016 119.85 57.818 119.18 63.7516 117.261C66.5542 116.355 55.3116 119.734 47.0993 117.645C40.6873 116.014 34.9285 111.253 30.6385 109.297C27.7337 107.973 21.117 107.256 17.9101 107.474C16.6227 107.562 12.8379 108.434 12.8379 108.434L11.5938 104.02Z" fill="white"/>
<path d="M58.5901 99.9501C60.5297 99.9501 62.1021 98.3737 62.1021 96.4291C62.1021 94.4845 60.5297 92.9081 58.5901 92.9081C56.6505 92.9081 55.0781 94.4845 55.0781 96.4291C55.0781 98.3737 56.6505 99.9501 58.5901 99.9501Z" fill="white"/>
<path d="M63.9359 89.8746C65.4279 89.8746 66.6374 88.6619 66.6374 87.1661C66.6374 85.6703 65.4279 84.4576 63.9359 84.4576C62.4439 84.4576 61.2344 85.6703 61.2344 87.1661C61.2344 88.6619 62.4439 89.8746 63.9359 89.8746Z" fill="white"/>
<path fill-rule="evenodd" clip-rule="evenodd" d="M47.7344 85.4327C47.7344 82.8599 49.8125 80.7742 52.3828 80.7742C53.6172 80.7742 54.7969 81.2649 55.6641 82.1385C56.5391 83.0122 57.0312 84.1971 57.0312 85.4327C57.0312 88.0055 54.9453 90.0912 52.3828 90.0912C49.8125 90.0913 47.7344 88.0056 47.7344 85.4327ZM53.2344 88.1743C54.3125 87.8557 55.0938 86.9174 55.2109 85.797C55.2891 85.0624 55.0781 84.3268 54.6094 83.7521C54.1484 83.1774 53.4766 82.8105 52.7422 82.7324C51.625 82.6132 50.5469 83.1805 50.0078 84.17C49.4766 85.1595 49.5859 86.3761 50.2891 87.2527C50.9922 88.1292 52.1562 88.4929 53.2344 88.1743Z" fill="white"/>
</svg>
