<svg width="330" height="245" viewBox="0 0 330 245" fill="none" xmlns="http://www.w3.org/2000/svg">
<path fill-rule="evenodd" clip-rule="evenodd" d="M363.543 262.211L358.582 249.357C355.633 242.642 350.75 236.956 344.562 233.022C342.398 232.406 340.234 231.804 338.066 231.216C333.855 230.074 329.637 228.984 325.414 227.949C320.781 216.319 306.719 214.325 306.719 214.325L307.203 211.257L308.82 207.059L305.75 206.413C305.75 206.413 304.621 202.054 306.883 199.955C309.141 197.855 303.812 194.626 303.812 194.626L301.715 184.938L300.801 196.886L297.895 141.126L300.801 135.529L287.184 132.461L285.73 113.569L287.988 108.241L285.082 107.918L276.363 89.6723L276.043 84.8281C276.07 84.7978 276.168 84.7455 276.309 84.6708C276.559 84.537 276.941 84.3325 277.281 84.0551C277.605 83.7885 277.895 83.4545 277.98 83.0517C278.316 81.4892 274.75 75.4628 274.75 75.4628L274.59 63.5146L273.707 75.4023C273.707 75.4023 272.305 77.2026 271.199 79.0966C270.562 80.1874 270.023 81.31 269.906 82.1371C269.582 84.4008 272.059 85.1513 272.059 85.1513L273.027 89.1342L270.555 94.7319L267 103.235L258.121 102.59L256.832 84.6669L259.094 82.8906L260.383 75.6244L255.535 75.1401L242.621 48.0136V42.0366C245.012 40.7817 246.387 38.185 246.082 35.5009C245.875 32.5346 242.133 26.9482 239.758 23.6562C239.719 23.6 239.68 23.4853 239.641 23.3212C239.562 23.0082 239.484 22.5151 239.414 21.9077C239.309 20.9994 239.207 19.8354 239.117 18.6337C239.027 17.3935 238.949 16.1132 238.887 15.0327C238.797 13.4702 238.746 12.3261 238.746 12.3261C238.746 12.3261 238.672 22.9042 238.273 23.5878C237.785 24.4267 237.324 25.456 236.883 26.5742C235.816 29.2895 234.852 32.5287 233.84 34.8373C233.449 35.728 233.391 36.5995 233.535 37.4174C233.719 38.435 234.219 39.3686 234.789 40.1518C235.844 41.5922 237.137 42.5224 237.137 42.5224V48.3349L226.152 76.1083L222.438 76.9155L222.922 83.0541L225.023 85.9604V103.239L219.531 103.724L214.043 90.9677L214.121 87.0117C215.57 85.8603 216.395 84.0981 216.355 82.2485C216.355 79.9545 213.938 77.2255 212.539 75.8373C211.969 75.2709 211.621 64.9174 211.621 64.9174C211.621 64.9174 211.301 75.205 210.898 75.6713C209.738 77.02 207.445 79.956 207.207 82.3564C207.02 84.246 207.914 86.0795 209.52 87.0927V91.4482L203.062 107.003L199.348 109.371L201.934 114.538V134.237L195.312 135.044L190.953 136.66L193.699 144.41V169.794L185.16 126.36L186.43 124.961L186.176 116.058L191.262 110.462V106.138L186.172 104.952L183.117 103.341V94.4365L180.023 93.7582L180.277 90.1122C180.277 90.1122 182.402 89.0947 182.402 88.7558C182.402 88.4169 177.906 85.2797 177.906 85.2797V84.0927C178.25 83.8984 178.621 83.7558 179.008 83.6694C179.082 83.6572 179.137 83.6191 179.176 83.5629C179.203 83.5263 179.223 83.4814 179.234 83.4306C179.258 83.3408 179.262 83.2333 179.246 83.1201C179.223 82.9575 179.164 82.7827 179.078 82.6313C178.945 82.4037 178.742 82.2294 178.5 82.2294C177.598 82.0546 176.715 81.7773 175.871 81.4023C174.918 80.374 174.027 79.291 173.203 78.1591C172.566 77.141 172.48 70.2734 172.48 70.2734V64.4228L171.797 57.894L171.035 55.52L168.32 49.9238L164.676 45.0912L164.59 42.4628C164.59 42.4628 164.449 42.1225 164.273 41.6518C164.102 41.1826 163.891 40.5834 163.746 40.0629C163.586 39.4785 163.508 38.9931 163.66 38.9013C163.84 38.7919 164.035 38.3271 164.203 37.83C164.289 37.5693 164.367 37.2997 164.43 37.0683L164.59 36.4418L164.148 35.516C163.816 34.85 163.453 34.1982 163.066 33.5619C165.816 33.2114 166.266 32.3759 166.391 31.0556L166.434 30.3315C166.453 29.9194 166.477 29.4702 166.543 28.9833C167.078 28.956 167.508 28.891 167.848 28.7973C168.012 28.7524 168.156 28.7006 168.285 28.643C169.016 28.3168 169.195 27.8051 169.27 27.2817C169.32 26.8998 169.316 26.5121 169.422 26.1855C169.758 25.1674 168.066 21.9457 167.133 20.9282C167.133 20.6972 167.109 20.4745 167.066 20.2607C166.992 19.912 166.867 19.5864 166.711 19.2856C166.363 18.6284 165.855 18.0908 165.387 17.6909C164.945 17.3159 164.539 17.0619 164.332 16.9433C163.742 16.6049 160.941 16.6039 160.941 16.6039L159.078 17.0278L156.363 16.519L156.539 14.31C155.801 13.9545 155.801 13.4785 155.945 13.038C156.098 12.6327 156.363 12.2797 156.711 12.0204C156.711 12.0204 156.457 10.664 156.879 10.4091C157.035 10.3159 157.078 10.1313 157.066 9.93499C157.051 9.59613 156.879 9.22259 156.879 9.22259L156.457 7.78265V6.59417C156.367 5.96185 156.223 5.33832 156.031 4.72943C155.777 4.0473 153.742 2.18499 153.742 2.18499C153.742 2.18499 153.535 1.91595 153.293 1.62689C153.125 1.42865 152.945 1.22113 152.809 1.08343C152.469 0.744565 150.688 0.998471 148.992 1.08343C148.188 1.12396 147.402 1.48968 146.727 1.89886C146.371 2.11322 146.047 2.33929 145.766 2.53705C145.453 2.7558 145.195 2.93988 145.008 3.03314C144.332 3.37201 144.754 6.33978 145.18 7.86615C145.855 9.57318 146.676 11.2187 147.637 12.7836L147.215 16.9379C146.879 16.686 144.922 16.621 143.031 16.6201C141.102 16.6186 139.242 16.6835 139.242 16.6835L136.613 21.0077C136.613 21.0077 137.207 21.2621 138.312 21.7709C139.414 22.2792 142.805 29.5712 142.805 29.5712C142.805 29.5712 143.012 29.8071 143.305 30.1743C143.566 30.5014 143.891 30.933 144.199 31.3959C144.582 31.9736 144.938 32.6 145.094 33.1332C145.441 34.3237 143.824 38.9369 143.156 40.8339C143.016 41.2314 142.918 41.5097 142.891 41.6127C142.719 42.207 142.379 56.4511 142.379 56.4511L145.262 58.2314L146.957 58.9135L147.887 65.1879L147.895 65.2319C148.004 65.976 148.645 70.3818 148.312 71.3779C148.168 71.811 148.316 73.226 148.535 74.7094C148.828 76.7123 149.246 78.8393 149.246 78.8393L151.027 83.5034L151.363 86.6406L141.105 93.8476V97.3242L138.051 99.1039V107.584L130.336 112.501V117.334L135.086 121.913L134.836 169.794H104.035V105.441H74.2969V130.315H64.832L65.6445 142.481H74.2969V167.895H65.1016V196.284H16.168L10.4883 197.636V205.477H7.24609L6.70312 210.073H9.14062V220.484H0.863281L1.13281 230.758H9.13672V257.735C8.33984 258.024 -4.76172 391.558 17.7773 383.239C42.9805 373.938 68.3438 365.146 94.2461 357.991C153.48 342.733 214.816 336.544 275.664 344.931C292.141 347.234 308.473 350.48 324.578 354.653L326.242 355.114L327.68 355.516C331.902 358.163 336.121 358.542 340.344 356.653C345.238 355.977 349.176 353.465 352.152 349.115C360.645 339.717 365.324 323.236 366.746 311.154C368.629 295.081 368.668 277.712 363.543 262.211ZM235.906 139.289C235.906 134.122 240.094 129.932 245.262 129.932C250.43 129.932 254.621 134.122 254.621 139.289C254.621 144.457 250.43 148.646 245.262 148.646C242.781 148.646 240.402 147.66 238.648 145.905C236.891 144.15 235.906 141.77 235.906 139.289ZM222.012 136.125H195.957V138.597H223.082H224.219L224.312 137.46C224.375 136.717 226.012 119.24 245.227 118.033C264.398 116.839 267.281 134.63 267.398 135.388L267.543 136.361L296.617 138.589L296.809 136.129L269.637 134.047C268.68 129.939 263.781 114.372 245.074 115.568C226.664 116.725 222.754 131.82 222.012 136.125ZM160.949 57.3842L163.238 58.9955L163.832 61.7934L164.254 62.1327C164.254 62.1327 164.422 67.7905 164.652 73.165C164.859 77.9199 165.117 82.4531 165.355 82.6523C165.75 82.9545 166.176 83.2109 166.629 83.4155V84.602C166.629 84.602 165.016 83.3305 164.426 83.4155C163.441 83.7924 162.504 84.2753 161.625 84.8554C161.508 84.9257 161.32 84.9506 161.109 84.9643L160.879 84.976C160.367 84.998 159.812 85.0224 159.762 85.4487C159.676 86.1269 157.637 86.6362 157.637 86.6362C157.469 86.3818 156.707 82.8202 156.707 82.8202C156.707 82.8202 156.453 71.7128 155.773 70.3564C155.59 69.9902 155.508 69.0141 155.484 67.7831C155.469 67.0864 155.473 66.3076 155.488 65.5121C155.551 62.5019 155.777 59.2485 155.777 59.2485L160.949 57.3842ZM97.2734 125.096C97.2734 120.989 93.9453 117.661 89.8359 117.661C88.2578 117.66 86.7305 118.163 85.4648 119.08C85.1523 119.308 84.8555 119.56 84.5781 119.837C83.1836 121.232 82.4023 123.123 82.4023 125.096C82.4023 129.202 85.7305 132.531 89.8359 132.531C93.9453 132.531 97.2734 129.202 97.2734 125.096Z" fill="#3A2DB0"/>
</svg>
