<?xml version="1.0" encoding="UTF-8"?>
<svg width="99px" height="33px" viewBox="0 0 99 33" version="1.1" xmlns="http://www.w3.org/2000/svg" xmlns:xlink="http://www.w3.org/1999/xlink">
    <!-- Generator: Sketch 51 (57462) - http://www.bohemiancoding.com/sketch -->
    <title>logo copy</title>
    <desc>Created with Sketch.</desc>
    <defs>
        <path d="M84,7.10542736e-15 L86.9711539,7.10542736e-15 C88.6439393,6.79814164e-15 90,1.35606061 90,3.02884615 L90,24 L87.0288461,24 C85.3560607,24 84,22.6439393 84,20.9711538 L84,7.10542736e-15 Z M28,12 L28,9 L31,9 C32.6568542,9 34,10.3431458 34,12 L34.0239303,12.2277258 C34.3708852,15.5294245 37.3287034,17.9247177 40.6304021,17.5777627 C43.5387431,17.2721433 45.8051662,14.9178572 46,12 L46,9 L48.9992662,9 C50.6202748,9 51.9343619,10.3140871 51.9343619,11.9350957 C51.9343619,11.9567324 51.9341227,11.9783685 51.9336442,12 L51.9336442,12 C51.6993883,18.6004292 46.1587813,23.7612323 39.5583521,23.5269764 C33.6167622,23.3161033 28.7323611,18.7724126 28.0931662,12.8615423 L28,12 Z M56,12 L56,9 L59,9 C60.6568542,9 62,10.3431458 62,12 L62.0239303,12.2277258 C62.3708852,15.5294245 65.3287034,17.9247177 68.6304021,17.5777627 C71.5387431,17.2721433 73.8051662,14.9178572 74,12 L74,9 L76.9992662,9 C78.6202748,9 79.9343619,10.3140871 79.9343619,11.9350957 C79.9343619,11.9567324 79.9341227,11.9783685 79.9336442,12 L79.9336442,12 C79.6993883,18.6004292 74.1587813,23.7612323 67.5583521,23.5269764 C61.6167622,23.3161033 56.7323611,18.7724126 56.0931662,12.8615423 L56,12 Z M1.94622098e-14,12 L-7.10542736e-15,9 L2.9989066,9 C4.65576085,9 5.9989066,10.3431458 5.9989066,12 L6.02282389,12.2276436 C6.36965281,15.528745 9.32688461,17.923656 12.627986,17.5768271 C15.535871,17.2713113 17.8019523,14.9173962 17.9967198,12 L17.9967198,9 L20.9948929,9 C22.6159079,9 23.9300002,10.3140923 23.9300002,11.9351073 C23.9300002,11.9567402 23.929761,11.9783724 23.9292827,12 L23.9292827,12 C23.6832536,18.596586 18.136218,23.7447294 11.539632,23.4987002 C10.0891609,23.4446028 8.66067265,23.1267632 7.32410479,22.5607426 C6.88273652,22.3738284 6.44136826,22.1869142 6,22 C6,22 6,25.6666667 6,33 L3,33 C1.34314575,33 -5.43093904e-15,31.6568542 -7.10542736e-15,30 L1.94622098e-14,12 Z" id="path-1"></path>
    </defs>
    <g id="logo-copy" stroke="none" stroke-width="1" fill="none" fill-rule="evenodd">
        <mask id="mask-2" fill="white">
            <use xlink:href="#path-1"></use>
        </mask>
        <use id="Mask" stroke="#3A2DB0" fill="#FFFFFF" xlink:href="#path-1"></use>
    </g>
</svg>