<?xml version="1.0" encoding="UTF-8"?>
<svg width="93px" height="33px" viewBox="0 0 93 33" version="1.1" xmlns="http://www.w3.org/2000/svg" xmlns:xlink="http://www.w3.org/1999/xlink">
    <!-- Generator: Sketch 51 (57462) - http://www.bohemiancoding.com/sketch -->
    <title>Mask</title>
    <desc>Created with Sketch.</desc>
    <defs>
        <path d="M87,7.10542736e-15 L89.9711539,7.10542736e-15 C91.6439393,6.79814164e-15 93,1.35606061 93,3.02884615 L93,24 L90.0288461,24 C88.3560607,24 87,22.6439393 87,20.9711538 L87,7.10542736e-15 Z M29,12 L29,9 L32,9 C33.6568542,9 35,10.3431458 35,12 L35.0239303,12.2277258 C35.3708852,15.5294245 38.3287034,17.9247177 41.6304021,17.5777627 C44.5387431,17.2721433 46.8051662,14.9178572 47,12 L47,9 L49.9992662,9 C51.6202748,9 52.9343619,10.3140871 52.9343619,11.9350957 C52.9343619,11.9567324 52.9341227,11.9783685 52.9336442,12 L52.9336442,12 C52.6993883,18.6004292 47.1587813,23.7612323 40.5583521,23.5269764 C34.6167622,23.3161033 29.7323611,18.7724126 29.0931662,12.8615423 L29,12 Z M58,12 L58,9 L61,9 C62.6568542,9 64,10.3431458 64,12 L64.0239303,12.2277258 C64.3708852,15.5294245 67.3287034,17.9247177 70.6304021,17.5777627 C73.5387431,17.2721433 75.8051662,14.9178572 76,12 L76,9 L78.9992662,9 C80.6202748,9 81.9343619,10.3140871 81.9343619,11.9350957 C81.9343619,11.9567324 81.9341227,11.9783685 81.9336442,12 L81.9336442,12 C81.6993883,18.6004292 76.1587813,23.7612323 69.5583521,23.5269764 C63.6167622,23.3161033 58.7323611,18.7724126 58.0931662,12.8615423 L58,12 Z M1.94622098e-14,12 L-7.10542736e-15,9 L2.9989066,9 C4.65576085,9 5.9989066,10.3431458 5.9989066,12 L6.02282389,12.2276436 C6.36965281,15.528745 9.32688461,17.923656 12.627986,17.5768271 C15.535871,17.2713113 17.8019523,14.9173962 17.9967198,12 L17.9967198,9 L20.9948929,9 C22.6159079,9 23.9300002,10.3140923 23.9300002,11.9351073 C23.9300002,11.9567402 23.929761,11.9783724 23.9292827,12 L23.9292827,12 C23.6832536,18.596586 18.136218,23.7447294 11.539632,23.4987002 C10.0891609,23.4446028 8.66067265,23.1267632 7.32410479,22.5607426 C6.88273652,22.3738284 6.44136826,22.1869142 6,22 C6,22 6,25.6666667 6,33 L3,33 C1.34314575,33 -5.43093904e-15,31.6568542 -7.10542736e-15,30 L1.94622098e-14,12 Z" id="path-1"></path>
    </defs>
    <g id="Symbols" stroke="none" stroke-width="1" fill="none" fill-rule="evenodd">
        <g id="logo">
            <mask id="mask-2" fill="white">
                <use xlink:href="#path-1"></use>
            </mask>
            <use id="Mask" fill="#3A2DB0" xlink:href="#path-1"></use>
        </g>
    </g>
</svg>