<svg width="55" height="19" viewBox="0 0 55 19" fill="none" xmlns="http://www.w3.org/2000/svg">
<path fill-rule="evenodd" clip-rule="evenodd" d="M50.9698 0H52.7105C53.6905 0 54.485 0.780762 54.485 1.74388V13.8182H52.7443C51.7643 13.8182 50.9698 13.0374 50.9698 12.0743V0ZM16.9901 6.90908V5.18181H18.7779C19.7319 5.18181 20.5052 5.95514 20.5052 6.90908C20.9628 11.1881 27.2438 11.2026 27.5355 6.90908V5.18181H29.323C30.2708 5.18181 31.0331 5.96149 31.0118 6.90908C30.6984 15.5878 17.9399 15.5414 16.9901 6.90908ZM33.9798 6.90908V5.18181H35.7677C36.7216 5.18181 37.4949 5.95514 37.4949 6.90908C37.9525 11.1881 44.2335 11.2026 44.5252 6.90908V5.18181H46.3127C47.2605 5.18181 48.0228 5.96149 48.0015 6.90908C47.6881 15.5878 34.9296 15.5414 33.9798 6.90908ZM0 6.90908V5.18181H1.78724C2.74118 5.18181 3.51451 5.95514 3.51451 6.90908C3.97189 11.1874 10.2519 11.2018 10.5435 6.90908V5.18181H12.3303C13.2782 5.18181 14.0405 5.96149 14.0192 6.90908C13.8359 11.7391 8.88893 14.9031 4.42647 13.0459C3.86166 12.8109 3.51515 12.6667 3.51515 12.6667V19H1.72727C0.773326 19 0 18.2267 0 17.2727V6.90908Z" fill="white"/>
<mask id="mask0" mask-type="alpha" maskUnits="userSpaceOnUse" x="0" y="0" width="55" height="19">
<path fill-rule="evenodd" clip-rule="evenodd" d="M50.9698 0H52.7105C53.6905 0 54.485 0.780762 54.485 1.74388V13.8182H52.7443C51.7643 13.8182 50.9698 13.0374 50.9698 12.0743V0ZM16.9901 6.90908V5.18181H18.7779C19.7319 5.18181 20.5052 5.95514 20.5052 6.90908C20.9628 11.1881 27.2438 11.2026 27.5355 6.90908V5.18181H29.323C30.2708 5.18181 31.0331 5.96149 31.0118 6.90908C30.6984 15.5878 17.9399 15.5414 16.9901 6.90908ZM33.9798 6.90908V5.18181H35.7677C36.7216 5.18181 37.4949 5.95514 37.4949 6.90908C37.9525 11.1881 44.2335 11.2026 44.5252 6.90908V5.18181H46.3127C47.2605 5.18181 48.0228 5.96149 48.0015 6.90908C47.6881 15.5878 34.9296 15.5414 33.9798 6.90908ZM0 6.90908V5.18181H1.78724C2.74118 5.18181 3.51451 5.95514 3.51451 6.90908C3.97189 11.1874 10.2519 11.2018 10.5435 6.90908V5.18181H12.3303C13.2782 5.18181 14.0405 5.96149 14.0192 6.90908C13.8359 11.7391 8.88893 14.9031 4.42647 13.0459C3.86166 12.8109 3.51515 12.6667 3.51515 12.6667V19H1.72727C0.773326 19 0 18.2267 0 17.2727V6.90908Z" fill="white"/>
</mask>
<g mask="url(#mask0)">
<rect width="54.4848" height="19" fill="white"/>
</g>
</svg>
