<svg width="40" height="34" viewBox="0 0 40 34" fill="none" xmlns="http://www.w3.org/2000/svg">
<path d="M37.8278 0.365137V0.306641H37.632H2.34837H2.15255V0.365137C0.99817 0.444484 0.136928 1.36291 0 2.47762V2.67383V25.9237C0 26.3746 0.11732 26.7546 0.313137 27.0969C0.76366 27.8901 1.42869 28.2909 2.34843 28.2909H15.225V31.539H12.779C12.1724 31.539 11.7027 32.0107 11.7027 32.6161C11.7027 33.2214 12.1724 33.6931 12.779 33.6931H27.2016C27.8082 33.6931 28.2975 33.2214 28.2975 32.6161C28.2975 32.0107 27.8082 31.539 27.2016 31.539H24.7555V28.2909H37.632C38.5522 28.2909 39.2231 27.8901 39.6673 27.0969C39.8689 26.7379 40.0001 26.3537 40.0001 25.9237V2.67389V2.47768C39.8631 1.36291 38.9433 0.444484 37.8278 0.365137ZM37.8278 2.67389V25.9238C37.8278 26.0616 37.7693 26.12 37.632 26.12H2.34837C2.21144 26.12 2.15255 26.0616 2.15255 25.9238V2.67389V2.47768H37.8278V2.67389H37.8278Z" fill="#3A2DB0"/>
</svg>
