<svg width="80" height="80" viewBox="0 0 80 80" fill="none" xmlns="http://www.w3.org/2000/svg">
<path d="M79 40C79 61.5391 61.5391 79 40 79C18.4609 79 1 61.5391 1 40C1 18.4609 18.4609 1 40 1C61.5391 1 79 18.4609 79 40Z" stroke="#519032" stroke-width="2"/>
<path fill-rule="evenodd" clip-rule="evenodd" d="M42 26C44.1992 26 46 24.2002 46 22C46 19.7998 44.1992 18 42 18C40.8672 18 39.8438 18.4766 39.1133 19.2383C38.4258 19.958 38 20.9316 38 22C38 23.0283 38.3906 23.9688 39.0352 24.6787C39.7695 25.4893 40.8281 26 42 26ZM55.8906 34.1729C56.1445 33.8594 56.3633 33.5137 56.5352 33.1416C56.7031 32.7764 56.8281 32.3867 56.9062 31.9775C56.9688 31.6621 57 31.335 57 31C57 30.1484 56.7969 29.3516 56.4336 28.6562C56.2461 28.2939 56.0156 27.958 55.7461 27.6562C55.5469 27.4346 55.332 27.2314 55.0977 27.0488C54.25 26.3896 53.1797 26 52 26C49.1992 26 47 28.2002 47 31C47 33.7998 49.1992 36 52 36C53.5859 36 54.9805 35.2939 55.8906 34.1729ZM39 42C42.3008 42 45 39.2998 45 36C45 32.7002 42.3008 30 39 30C35.6992 30 33 32.7002 33 36C33 39.2998 35.6992 42 39 42ZM57.0039 45.3779C57.3008 45.375 57.6016 45.3926 57.8984 45.4307C58.6992 45.5332 59.4844 45.7842 60.2109 46.1807C60.7461 46.4746 61.2461 46.8477 61.6992 47.2998C61.8984 47.5 62 47.7998 62 48.0996C62 48.3994 61.8008 48.5996 61.6016 48.7998L52.1992 55.7998C50.3008 57.1992 48.1016 58 45.8008 58.2998L31.6992 59.8994L31.4648 59.9473L31.1484 59.9805L30.6406 59.999L30.3008 60H24.8008C24.6602 60.4141 24.4375 60.7812 24.1523 61.084C24.0078 61.2383 23.8477 61.376 23.6719 61.4951L23.3672 61.6729L23.1445 61.7773C22.793 61.9219 22.4062 62 22 62H19C18.6367 62 18.3516 61.8545 18.1758 61.6094C18.0625 61.4463 18 61.2393 18 61C18 60.791 18.0469 60.6064 18.1367 60.4551C18.2109 60.3281 18.3125 60.2236 18.4375 60.1465C18.5273 60.0928 18.6289 60.0527 18.7383 60.0283C18.8203 60.0098 18.9062 60 19 60H22C22.6016 60 23 59.5996 23 59V53C23 52.8008 22.957 52.623 22.875 52.4756C22.7695 52.2773 22.5938 52.1318 22.3711 52.0566L22.1719 52.0117L22 52H19C18.7617 52 18.5547 51.9375 18.3906 51.8242C18.1445 51.6523 18 51.3623 18 51C18 50.8115 18.0391 50.6426 18.1133 50.5C18.1445 50.4355 18.1836 50.376 18.2305 50.3223C18.2969 50.2461 18.375 50.1826 18.4648 50.1318C18.6133 50.0469 18.793 50 19 50H22C22.8984 50 23.8008 50.3994 24.3008 51.1992L27.8008 47.1992C27.9609 47.0107 28.1289 46.8301 28.3047 46.6572C28.5352 46.4268 28.7773 46.2119 29.0312 46.0107C29.4141 45.709 29.8203 45.4414 30.2461 45.209C31.5664 44.4834 33.0664 44.0996 34.6016 44.0996H45C46.1016 44.0996 47 45 47 46.0996C47 47.0068 46.7305 47.9141 46.2969 48.6523C46.2031 48.8096 46.1055 48.959 46 49.0996C46.4375 49.0664 46.875 49.0107 47.3047 48.9326C47.7539 48.8496 48.1914 48.7432 48.6133 48.6113L49.0195 48.4766L49.5273 48.2744L49.6992 48.1992L53.8984 46.1992C54.5 45.8613 55.1445 45.6289 55.8047 45.499C56.0039 45.46 56.207 45.4307 56.4102 45.4102C56.6055 45.3896 56.8047 45.3789 57.0039 45.3779ZM45.6016 56.2998C47.6016 56.0996 49.3984 55.4004 51 54.2002L59.3984 48C58 47.0996 56.1992 47.0996 54.8008 47.9004L50.5 49.9004C49 50.5996 47.3984 51 45.6992 51H42H41H36C35.3984 51 35 50.5996 35 50C35 49.4004 35.3984 49 36 49H41H42C43.6992 49 45 47.7002 45 46H34.6992C33.793 46 32.9219 46.1689 32.1211 46.4814C31.0664 46.8906 30.1367 47.5488 29.3984 48.4004L25 53.4004V58H30.3008C30.6992 58 31.1016 57.9004 31.5 57.9004L45.6016 56.2998ZM41.2891 32.7256C40.6406 32.2686 39.8516 32 39 32C36.8008 32 35 33.7998 35 36C35 36.4082 35.0625 36.8018 35.1758 37.1738C35.2695 37.4746 35.3984 37.7598 35.5547 38.0254C35.7344 38.3262 35.9492 38.6016 36.1953 38.8457C36.5625 39.207 36.9961 39.498 37.4805 39.6982C37.9492 39.8926 38.4609 40 39 40C40.5742 40 41.9453 39.0771 42.5977 37.7461C42.8555 37.2178 43 36.625 43 36C43 35.2412 42.7852 34.5303 42.4141 33.9238C42.125 33.4512 41.7422 33.043 41.2891 32.7256ZM55 31C55 29.2998 53.6992 28 52 28C50.3008 28 49 29.2998 49 31C49 32.7002 50.3008 34 52 34C53.1562 34 54.1289 33.3975 54.6328 32.4756C54.8672 32.0439 55 31.542 55 31ZM43.2852 20.4697C42.9375 20.1768 42.4883 20 42 20C40.8984 20 40 20.9004 40 22C40 22.6592 40.3242 23.2471 40.8203 23.6123C41.1523 23.8555 41.5586 24 42 24C43.1016 24 44 23.0996 44 22C44 21.3877 43.7227 20.8379 43.2852 20.4697Z" fill="#519032"/>
<mask id="mask0" mask-type="alpha" maskUnits="userSpaceOnUse" x="18" y="18" width="44" height="44">
<path fill-rule="evenodd" clip-rule="evenodd" d="M42 26C44.1992 26 46 24.2002 46 22C46 19.7998 44.1992 18 42 18C40.8672 18 39.8438 18.4766 39.1133 19.2383C38.4258 19.958 38 20.9316 38 22C38 23.0283 38.3906 23.9688 39.0352 24.6787C39.7695 25.4893 40.8281 26 42 26ZM55.8906 34.1729C56.1445 33.8594 56.3633 33.5137 56.5352 33.1416C56.7031 32.7764 56.8281 32.3867 56.9062 31.9775C56.9688 31.6621 57 31.335 57 31C57 30.1484 56.7969 29.3516 56.4336 28.6562C56.2461 28.2939 56.0156 27.958 55.7461 27.6562C55.5469 27.4346 55.332 27.2314 55.0977 27.0488C54.25 26.3896 53.1797 26 52 26C49.1992 26 47 28.2002 47 31C47 33.7998 49.1992 36 52 36C53.5859 36 54.9805 35.2939 55.8906 34.1729ZM39 42C42.3008 42 45 39.2998 45 36C45 32.7002 42.3008 30 39 30C35.6992 30 33 32.7002 33 36C33 39.2998 35.6992 42 39 42ZM57.0039 45.3779C57.3008 45.375 57.6016 45.3926 57.8984 45.4307C58.6992 45.5332 59.4844 45.7842 60.2109 46.1807C60.7461 46.4746 61.2461 46.8477 61.6992 47.2998C61.8984 47.5 62 47.7998 62 48.0996C62 48.3994 61.8008 48.5996 61.6016 48.7998L52.1992 55.7998C50.3008 57.1992 48.1016 58 45.8008 58.2998L31.6992 59.8994L31.4648 59.9473L31.1484 59.9805L30.6406 59.999L30.3008 60H24.8008C24.6602 60.4141 24.4375 60.7812 24.1523 61.084C24.0078 61.2383 23.8477 61.376 23.6719 61.4951L23.3672 61.6729L23.1445 61.7773C22.793 61.9219 22.4062 62 22 62H19C18.6367 62 18.3516 61.8545 18.1758 61.6094C18.0625 61.4463 18 61.2393 18 61C18 60.791 18.0469 60.6064 18.1367 60.4551C18.2109 60.3281 18.3125 60.2236 18.4375 60.1465C18.5273 60.0928 18.6289 60.0527 18.7383 60.0283C18.8203 60.0098 18.9062 60 19 60H22C22.6016 60 23 59.5996 23 59V53C23 52.8008 22.957 52.623 22.875 52.4756C22.7695 52.2773 22.5938 52.1318 22.3711 52.0566L22.1719 52.0117L22 52H19C18.7617 52 18.5547 51.9375 18.3906 51.8242C18.1445 51.6523 18 51.3623 18 51C18 50.8115 18.0391 50.6426 18.1133 50.5C18.1445 50.4355 18.1836 50.376 18.2305 50.3223C18.2969 50.2461 18.375 50.1826 18.4648 50.1318C18.6133 50.0469 18.793 50 19 50H22C22.8984 50 23.8008 50.3994 24.3008 51.1992L27.8008 47.1992C27.9609 47.0107 28.1289 46.8301 28.3047 46.6572C28.5352 46.4268 28.7773 46.2119 29.0312 46.0107C29.4141 45.709 29.8203 45.4414 30.2461 45.209C31.5664 44.4834 33.0664 44.0996 34.6016 44.0996H45C46.1016 44.0996 47 45 47 46.0996C47 47.0068 46.7305 47.9141 46.2969 48.6523C46.2031 48.8096 46.1055 48.959 46 49.0996C46.4375 49.0664 46.875 49.0107 47.3047 48.9326C47.7539 48.8496 48.1914 48.7432 48.6133 48.6113L49.0195 48.4766L49.5273 48.2744L49.6992 48.1992L53.8984 46.1992C54.5 45.8613 55.1445 45.6289 55.8047 45.499C56.0039 45.46 56.207 45.4307 56.4102 45.4102C56.6055 45.3896 56.8047 45.3789 57.0039 45.3779ZM45.6016 56.2998C47.6016 56.0996 49.3984 55.4004 51 54.2002L59.3984 48C58 47.0996 56.1992 47.0996 54.8008 47.9004L50.5 49.9004C49 50.5996 47.3984 51 45.6992 51H42H41H36C35.3984 51 35 50.5996 35 50C35 49.4004 35.3984 49 36 49H41H42C43.6992 49 45 47.7002 45 46H34.6992C33.793 46 32.9219 46.1689 32.1211 46.4814C31.0664 46.8906 30.1367 47.5488 29.3984 48.4004L25 53.4004V58H30.3008C30.6992 58 31.1016 57.9004 31.5 57.9004L45.6016 56.2998ZM41.2891 32.7256C40.6406 32.2686 39.8516 32 39 32C36.8008 32 35 33.7998 35 36C35 36.4082 35.0625 36.8018 35.1758 37.1738C35.2695 37.4746 35.3984 37.7598 35.5547 38.0254C35.7344 38.3262 35.9492 38.6016 36.1953 38.8457C36.5625 39.207 36.9961 39.498 37.4805 39.6982C37.9492 39.8926 38.4609 40 39 40C40.5742 40 41.9453 39.0771 42.5977 37.7461C42.8555 37.2178 43 36.625 43 36C43 35.2412 42.7852 34.5303 42.4141 33.9238C42.125 33.4512 41.7422 33.043 41.2891 32.7256ZM55 31C55 29.2998 53.6992 28 52 28C50.3008 28 49 29.2998 49 31C49 32.7002 50.3008 34 52 34C53.1562 34 54.1289 33.3975 54.6328 32.4756C54.8672 32.0439 55 31.542 55 31ZM43.2852 20.4697C42.9375 20.1768 42.4883 20 42 20C40.8984 20 40 20.9004 40 22C40 22.6592 40.3242 23.2471 40.8203 23.6123C41.1523 23.8555 41.5586 24 42 24C43.1016 24 44 23.0996 44 22C44 21.3877 43.7227 20.8379 43.2852 20.4697Z" fill="white"/>
</mask>
<g mask="url(#mask0)">
<rect x="18" y="18" width="44" height="44" fill="#519032"/>
</g>
</svg>
