<svg width="80" height="80" viewBox="0 0 80 80" fill="none" xmlns="http://www.w3.org/2000/svg">
<path d="M79 40C79 61.5391 61.5391 79 40 79C18.4609 79 1 61.5391 1 40C1 18.4609 18.4609 1 40 1C61.5391 1 79 18.4609 79 40Z" stroke="#519032" stroke-width="2"/>
<path fill-rule="evenodd" clip-rule="evenodd" d="M33 25C33.6016 25 34 24.5996 34 24V23C34 22.4004 34.3984 22 35 22H45C45.6016 22 46 22.4004 46 23V24C46 24.5996 46.3984 25 47 25C47.6016 25 48 24.5996 48 24V23C48 21.2998 46.6992 20 45 20H35C33.3008 20 32 21.2998 32 23V24C32 24.5996 32.3984 25 33 25ZM21 26H59C60.6992 26 62 27.2998 62 29V41C62 41.5693 61.8555 42.0928 61.5977 42.5391C61.0859 43.4248 60.1289 44 59 44H53C52.3984 44 52 43.5996 52 43C52 42.4004 52.3984 42 53 42H59C59.6016 42 60 41.5996 60 41V29C60 28.4004 59.6016 28 59 28H21C20.3984 28 20 28.4004 20 29V41C20 41.1074 20.0117 41.208 20.0391 41.3018C20.082 41.4648 20.1602 41.6055 20.2656 41.7158C20.4414 41.8965 20.6953 42 21 42H30V31C30 30.4004 30.3984 30 31 30C31.6016 30 32 30.4004 32 31V44C32 44.5996 31.6016 45 31 45C30.3984 45 30 44.5996 30 44H21C19.3008 44 18 42.7002 18 41V29C18 28.292 18.2266 27.6523 18.6133 27.1484C19.1523 26.4424 20.0078 26 21 26ZM58 47C58 46.4004 58.3984 46 59 46C59.6016 46 60 46.4004 60 47V57C60 57.1807 59.9883 57.3574 59.9609 57.5283C59.9297 57.6992 59.8867 57.8643 59.832 58.0225C59.7461 58.2705 59.6289 58.5029 59.4883 58.7139L59.3359 58.918L59.1875 59.085C58.6484 59.6543 57.875 60 57 60H23C21.3008 60 20 58.7002 20 57V47C20 46.4004 20.3984 46 21 46C21.3477 46 21.625 46.1328 21.8008 46.3594C21.9297 46.5264 22 46.7451 22 47V57C22 57.5996 22.3984 58 23 58H57C57.4023 58 57.7148 57.8213 57.875 57.5234C57.957 57.376 58 57.1992 58 57V47ZM33.8438 46.4189C33.9453 46.5771 34 46.7744 34 47C34 48.7002 32.6992 50 31 50C30.4961 50 30.0273 49.8857 29.6172 49.6807C29.3008 49.5215 29.0156 49.3076 28.7773 49.0498C28.293 48.5195 28 47.8047 28 47C28 46.4004 28.3984 46 29 46C29.1523 46 29.293 46.0264 29.418 46.0762C29.5664 46.1348 29.6914 46.2256 29.7852 46.3428C29.9219 46.5127 30 46.7373 30 47C30 47.5996 30.3984 48 31 48C31.6016 48 32 47.5996 32 47C32 46.4004 32.3984 46 33 46C33.375 46 33.6719 46.1562 33.8438 46.4189ZM49 30C48.3984 30 48 30.4004 48 31V42H35C34.3984 42 34 42.4004 34 43C34 43.5996 34.3984 44 35 44H48C48 44.5996 48.3984 45 49 45C49.6016 45 50 44.5996 50 44V31C50 30.4004 49.6016 30 49 30ZM48 47C48 47.5996 48.3984 48 49 48C49.4102 48 49.7266 47.8125 49.8867 47.502C49.9609 47.3584 50 47.1895 50 47C50 46.4004 50.3984 46 51 46C51.6016 46 52 46.4004 52 47C52 48.7002 50.6992 50 49 50C47.3008 50 46 48.7002 46 47C46 46.4004 46.3984 46 47 46C47.2852 46 47.5234 46.0889 47.6953 46.2461C47.8867 46.4219 48 46.6836 48 47Z" fill="#519032"/>
<mask id="mask0" mask-type="alpha" maskUnits="userSpaceOnUse" x="18" y="20" width="44" height="40">
<path fill-rule="evenodd" clip-rule="evenodd" d="M33 25C33.6016 25 34 24.5996 34 24V23C34 22.4004 34.3984 22 35 22H45C45.6016 22 46 22.4004 46 23V24C46 24.5996 46.3984 25 47 25C47.6016 25 48 24.5996 48 24V23C48 21.2998 46.6992 20 45 20H35C33.3008 20 32 21.2998 32 23V24C32 24.5996 32.3984 25 33 25ZM21 26H59C60.6992 26 62 27.2998 62 29V41C62 41.5693 61.8555 42.0928 61.5977 42.5391C61.0859 43.4248 60.1289 44 59 44H53C52.3984 44 52 43.5996 52 43C52 42.4004 52.3984 42 53 42H59C59.6016 42 60 41.5996 60 41V29C60 28.4004 59.6016 28 59 28H21C20.3984 28 20 28.4004 20 29V41C20 41.1074 20.0117 41.208 20.0391 41.3018C20.082 41.4648 20.1602 41.6055 20.2656 41.7158C20.4414 41.8965 20.6953 42 21 42H30V31C30 30.4004 30.3984 30 31 30C31.6016 30 32 30.4004 32 31V44C32 44.5996 31.6016 45 31 45C30.3984 45 30 44.5996 30 44H21C19.3008 44 18 42.7002 18 41V29C18 28.292 18.2266 27.6523 18.6133 27.1484C19.1523 26.4424 20.0078 26 21 26ZM58 47C58 46.4004 58.3984 46 59 46C59.6016 46 60 46.4004 60 47V57C60 57.1807 59.9883 57.3574 59.9609 57.5283C59.9297 57.6992 59.8867 57.8643 59.832 58.0225C59.7461 58.2705 59.6289 58.5029 59.4883 58.7139L59.3359 58.918L59.1875 59.085C58.6484 59.6543 57.875 60 57 60H23C21.3008 60 20 58.7002 20 57V47C20 46.4004 20.3984 46 21 46C21.3477 46 21.625 46.1328 21.8008 46.3594C21.9297 46.5264 22 46.7451 22 47V57C22 57.5996 22.3984 58 23 58H57C57.4023 58 57.7148 57.8213 57.875 57.5234C57.957 57.376 58 57.1992 58 57V47ZM33.8438 46.4189C33.9453 46.5771 34 46.7744 34 47C34 48.7002 32.6992 50 31 50C30.4961 50 30.0273 49.8857 29.6172 49.6807C29.3008 49.5215 29.0156 49.3076 28.7773 49.0498C28.293 48.5195 28 47.8047 28 47C28 46.4004 28.3984 46 29 46C29.1523 46 29.293 46.0264 29.418 46.0762C29.5664 46.1348 29.6914 46.2256 29.7852 46.3428C29.9219 46.5127 30 46.7373 30 47C30 47.5996 30.3984 48 31 48C31.6016 48 32 47.5996 32 47C32 46.4004 32.3984 46 33 46C33.375 46 33.6719 46.1562 33.8438 46.4189ZM49 30C48.3984 30 48 30.4004 48 31V42H35C34.3984 42 34 42.4004 34 43C34 43.5996 34.3984 44 35 44H48C48 44.5996 48.3984 45 49 45C49.6016 45 50 44.5996 50 44V31C50 30.4004 49.6016 30 49 30ZM48 47C48 47.5996 48.3984 48 49 48C49.4102 48 49.7266 47.8125 49.8867 47.502C49.9609 47.3584 50 47.1895 50 47C50 46.4004 50.3984 46 51 46C51.6016 46 52 46.4004 52 47C52 48.7002 50.6992 50 49 50C47.3008 50 46 48.7002 46 47C46 46.4004 46.3984 46 47 46C47.2852 46 47.5234 46.0889 47.6953 46.2461C47.8867 46.4219 48 46.6836 48 47Z" fill="white"/>
</mask>
<g mask="url(#mask0)">
<rect x="18" y="18" width="44" height="44" fill="#519032"/>
</g>
</svg>
