<svg width="80" height="80" viewBox="0 0 80 80" fill="none" xmlns="http://www.w3.org/2000/svg">
<path fill-rule="evenodd" clip-rule="evenodd" d="M54 18H26C25.2344 18 24.5469 18.2646 24.0234 18.7109C23.3906 19.2549 23 20.0664 23 21V59C23 60.7002 24.3008 62 26 62H54C55.6992 62 57 60.7002 57 59V21C57 19.2998 55.6992 18 54 18ZM28 22H52C52.5117 22 52.8789 22.29 52.9766 22.7451C52.9922 22.8252 53 22.9102 53 23V33C53 33.5996 52.6016 34 52 34H28C27.3984 34 27 33.5996 27 33V23C27 22.4004 27.3984 22 28 22ZM36 40H34V38C34 37.4004 33.6016 37 33 37C32.3984 37 32 37.4004 32 38V40H30C29.3984 40 29 40.4004 29 41C29 41.4072 29.1836 41.7227 29.4922 41.8828C29.5664 41.9219 29.6484 41.9521 29.7383 41.9717C29.8203 41.9902 29.9062 42 30 42H32V44C32 44.5996 32.3984 45 33 45C33.3086 45 33.5664 44.8936 33.7422 44.708C33.9062 44.5342 34 44.29 34 44V42H36C36.2969 42 36.543 41.9023 36.7188 41.7314C36.8984 41.5566 37 41.3037 37 41C37 40.4004 36.6016 40 36 40ZM43 41C43 40.4004 43.3984 40 44 40H50C50.2227 40 50.418 40.0547 50.5742 40.1543C50.8438 40.3232 51 40.6221 51 41C51 41.2373 50.9375 41.4434 50.8242 41.6055C50.7422 41.7236 50.6328 41.8184 50.5039 41.8857C50.3945 41.9414 50.2734 41.9775 50.1406 41.9922L50 42H44C43.3984 42 43 41.5996 43 41ZM36.6992 49.2998C37.1016 49.7002 37.1016 50.2998 36.6992 50.7002L34.3984 53L36.6992 55.2998C37.1016 55.7002 37.1016 56.2998 36.6992 56.7002C36.5 56.9004 36.1992 57 36 57C35.8789 57 35.7188 56.9619 35.5664 56.8857L35.4062 56.79L35.3008 56.7002L33 54.4004L30.6992 56.7002C30.5 56.9004 30.1992 57 30 57L29.9062 56.9941L29.7422 56.958L29.6016 56.9053L29.4375 56.8135L29.3008 56.7002C28.8984 56.2998 28.8984 55.7002 29.3008 55.2998L31.6016 53L29.3008 50.7002C28.8984 50.2998 28.8984 49.7002 29.3008 49.2998C29.6992 48.9004 30.3008 48.9004 30.6992 49.2998L33 51.5996L35.3008 49.2998C35.6992 48.9004 36.3008 48.9004 36.6992 49.2998ZM43.332 54.2217C43.5039 54.0801 43.7305 54 44 54H50C50.6016 54 51 54.4004 51 55C51 55.2549 50.9297 55.4736 50.8008 55.6406C50.625 55.8672 50.3477 56 50 56H44C43.3984 56 43 55.5996 43 55C43 54.668 43.1211 54.3975 43.332 54.2217ZM50 50H44C43.668 50 43.3945 50.123 43.2188 50.335C43.0781 50.5059 43 50.7334 43 51C43 51.5996 43.3984 52 44 52H50C50.6016 52 51 51.5996 51 51C51 50.4004 50.6016 50 50 50ZM51 32H29V24H51V32ZM40 28C40 28.5527 39.5508 29 39 29C38.4492 29 38 28.5527 38 28C38 27.7949 38.0625 27.6045 38.168 27.4463C38.3477 27.1768 38.6523 27 39 27C39.5508 27 40 27.4473 40 28ZM43 29C43.5508 29 44 28.5527 44 28C44 27.4473 43.5508 27 43 27C42.4492 27 42 27.4473 42 28C42 28.2422 42.0859 28.4648 42.2305 28.6377C42.2969 28.7168 42.375 28.7852 42.4609 28.8408C42.6133 28.9414 42.8008 29 43 29ZM47.3125 28.9512C47.2148 28.9824 47.1094 29 47 29C46.4492 29 46 28.5527 46 28C46 27.6982 46.1328 27.4277 46.3438 27.2441C46.5195 27.0918 46.75 27 47 27C47.2969 27 47.5664 27.1309 47.75 27.3398C47.9062 27.5156 48 27.7471 48 28C48 28.1377 47.9727 28.2686 47.9219 28.3877C47.8828 28.4873 47.8242 28.5781 47.7539 28.6582C47.6367 28.793 47.4844 28.8945 47.3125 28.9512ZM54 60C54.6016 60 55 59.5996 55 59V21C55 20.6152 54.8359 20.3125 54.5586 20.1455C54.4062 20.0518 54.2148 20 54 20H26C25.3984 20 25 20.4004 25 21V59C25 59.5996 25.3984 60 26 60H54Z" fill="#519032"/>
<mask id="mask0" mask-type="alpha" maskUnits="userSpaceOnUse" x="23" y="18" width="34" height="44">
<path fill-rule="evenodd" clip-rule="evenodd" d="M54 18H26C25.2344 18 24.5469 18.2646 24.0234 18.7109C23.3906 19.2549 23 20.0664 23 21V59C23 60.7002 24.3008 62 26 62H54C55.6992 62 57 60.7002 57 59V21C57 19.2998 55.6992 18 54 18ZM28 22H52C52.5117 22 52.8789 22.29 52.9766 22.7451C52.9922 22.8252 53 22.9102 53 23V33C53 33.5996 52.6016 34 52 34H28C27.3984 34 27 33.5996 27 33V23C27 22.4004 27.3984 22 28 22ZM36 40H34V38C34 37.4004 33.6016 37 33 37C32.3984 37 32 37.4004 32 38V40H30C29.3984 40 29 40.4004 29 41C29 41.4072 29.1836 41.7227 29.4922 41.8828C29.5664 41.9219 29.6484 41.9521 29.7383 41.9717C29.8203 41.9902 29.9062 42 30 42H32V44C32 44.5996 32.3984 45 33 45C33.3086 45 33.5664 44.8936 33.7422 44.708C33.9062 44.5342 34 44.29 34 44V42H36C36.2969 42 36.543 41.9023 36.7188 41.7314C36.8984 41.5566 37 41.3037 37 41C37 40.4004 36.6016 40 36 40ZM43 41C43 40.4004 43.3984 40 44 40H50C50.2227 40 50.418 40.0547 50.5742 40.1543C50.8438 40.3232 51 40.6221 51 41C51 41.2373 50.9375 41.4434 50.8242 41.6055C50.7422 41.7236 50.6328 41.8184 50.5039 41.8857C50.3945 41.9414 50.2734 41.9775 50.1406 41.9922L50 42H44C43.3984 42 43 41.5996 43 41ZM36.6992 49.2998C37.1016 49.7002 37.1016 50.2998 36.6992 50.7002L34.3984 53L36.6992 55.2998C37.1016 55.7002 37.1016 56.2998 36.6992 56.7002C36.5 56.9004 36.1992 57 36 57C35.8789 57 35.7188 56.9619 35.5664 56.8857L35.4062 56.79L35.3008 56.7002L33 54.4004L30.6992 56.7002C30.5 56.9004 30.1992 57 30 57L29.9062 56.9941L29.7422 56.958L29.6016 56.9053L29.4375 56.8135L29.3008 56.7002C28.8984 56.2998 28.8984 55.7002 29.3008 55.2998L31.6016 53L29.3008 50.7002C28.8984 50.2998 28.8984 49.7002 29.3008 49.2998C29.6992 48.9004 30.3008 48.9004 30.6992 49.2998L33 51.5996L35.3008 49.2998C35.6992 48.9004 36.3008 48.9004 36.6992 49.2998ZM43.332 54.2217C43.5039 54.0801 43.7305 54 44 54H50C50.6016 54 51 54.4004 51 55C51 55.2549 50.9297 55.4736 50.8008 55.6406C50.625 55.8672 50.3477 56 50 56H44C43.3984 56 43 55.5996 43 55C43 54.668 43.1211 54.3975 43.332 54.2217ZM50 50H44C43.668 50 43.3945 50.123 43.2188 50.335C43.0781 50.5059 43 50.7334 43 51C43 51.5996 43.3984 52 44 52H50C50.6016 52 51 51.5996 51 51C51 50.4004 50.6016 50 50 50ZM51 32H29V24H51V32ZM40 28C40 28.5527 39.5508 29 39 29C38.4492 29 38 28.5527 38 28C38 27.7949 38.0625 27.6045 38.168 27.4463C38.3477 27.1768 38.6523 27 39 27C39.5508 27 40 27.4473 40 28ZM43 29C43.5508 29 44 28.5527 44 28C44 27.4473 43.5508 27 43 27C42.4492 27 42 27.4473 42 28C42 28.2422 42.0859 28.4648 42.2305 28.6377C42.2969 28.7168 42.375 28.7852 42.4609 28.8408C42.6133 28.9414 42.8008 29 43 29ZM47.3125 28.9512C47.2148 28.9824 47.1094 29 47 29C46.4492 29 46 28.5527 46 28C46 27.6982 46.1328 27.4277 46.3438 27.2441C46.5195 27.0918 46.75 27 47 27C47.2969 27 47.5664 27.1309 47.75 27.3398C47.9062 27.5156 48 27.7471 48 28C48 28.1377 47.9727 28.2686 47.9219 28.3877C47.8828 28.4873 47.8242 28.5781 47.7539 28.6582C47.6367 28.793 47.4844 28.8945 47.3125 28.9512ZM54 60C54.6016 60 55 59.5996 55 59V21C55 20.6152 54.8359 20.3125 54.5586 20.1455C54.4062 20.0518 54.2148 20 54 20H26C25.3984 20 25 20.4004 25 21V59C25 59.5996 25.3984 60 26 60H54Z" fill="white"/>
</mask>
<g mask="url(#mask0)">
<rect x="18" y="18" width="44" height="44" fill="#519032"/>
</g>
<path d="M79 40C79 61.5391 61.5391 79 40 79C18.4609 79 1 61.5391 1 40C1 18.4609 18.4609 1 40 1C61.5391 1 79 18.4609 79 40Z" stroke="#519032" stroke-width="2"/>
</svg>
