<svg width="80" height="80" viewBox="0 0 80 80" fill="none" xmlns="http://www.w3.org/2000/svg">
<path d="M79 40C79 61.5391 61.5391 79 40 79C18.4609 79 1 61.5391 1 40C1 18.4609 18.4609 1 40 1C61.5391 1 79 18.4609 79 40Z" stroke="#519032" stroke-width="2"/>
<path fill-rule="evenodd" clip-rule="evenodd" d="M37 18H55C57.1992 18 59 19.7598 58.6016 21.9111V60.1426C58.6016 60.5332 58.3984 60.8271 58.1016 61.0225C57.8984 61.1201 57.8008 61.1201 57.6016 61.1201C57.4961 61.1201 57.3906 61.0938 57.2852 61.0547L57 60.9248L54.6016 59.3604L52.1992 60.9248C52.0586 61.0156 51.875 61.0645 51.6875 61.0713C51.4727 61.0781 51.2578 61.0293 51.1016 60.9248L48.6992 59.3604L46.3008 60.9248C46 61.1201 45.5 61.1201 45.1992 60.9248L42.8008 59.3604L40.3984 60.9248C40.2383 61.0293 40.0195 61.0781 39.8047 61.0713C39.6211 61.0645 39.4414 61.0156 39.3008 60.9248L36.8984 59.3604L34.5 60.9248C34.1992 61.1201 33.8008 61.1201 33.5 60.9248C33.1992 60.7285 33 60.4355 33 60.0449V21.9111C33 20.8359 32.1016 19.9551 31 19.9551C30.2422 19.9551 29.5781 20.374 29.2383 20.9863C29.0859 21.2617 29 21.5771 29 21.9111V39.5107C29 39.8848 28.9102 40.2588 28.7812 40.6172C28.6719 40.915 28.5352 41.2012 28.3984 41.4668H30C30.6016 41.4668 31 41.8574 31 42.4443C31 43.0312 30.6016 43.4219 30 43.4219H25C22.8008 43.4219 21 41.6621 21 39.5107V30.7109C21 30.124 21.3984 29.7334 22 29.7334H24C24.6016 29.7334 25 30.124 25 30.7109C25 31.2979 24.6016 31.6885 24 31.6885H23V39.5107C23 40.5869 23.8984 41.4668 25 41.4668C25.5469 41.4668 26.043 41.25 26.4062 40.9004C26.7734 40.5449 27 40.0527 27 39.5107V21.9111C27 19.7598 28.8984 18 31.1016 18C33.3008 18 35.1016 19.7598 35.1016 21.9111V58.2842L36.5 57.3066C36.8008 57.1113 37.3008 57.1113 37.6016 57.3066L40 58.8711L42.5 57.3066C42.8008 57.1113 43.3008 57.1113 43.6016 57.3066L46 58.8711L48.5 57.3066C48.8008 57.1113 49.3008 57.1113 49.6016 57.3066L52 58.8711L54.5 57.209C54.8008 57.0137 55.3008 57.0137 55.6016 57.209L57 58.1865V21.9111C57 20.8359 56.1016 19.9551 55 19.9551H37C36.3984 19.9551 36 19.5645 36 18.9775C36 18.3906 36.3984 18 37 18ZM39 24.8447H53C53.6016 24.8447 54 25.2354 54 25.8223C54 26.4092 53.6016 26.7998 53 26.7998H39C38.3984 26.7998 38 26.4092 38 25.8223C38 25.2354 38.3984 24.8447 39 24.8447ZM49 30.7109C49.6016 30.7109 50 30.3203 50 29.7334C50 29.1465 49.6016 28.7559 49 28.7559H43C42.3984 28.7559 42 29.1465 42 29.7334C42 30.3203 42.3984 30.7109 43 30.7109H49ZM42 37.5547C41.3984 37.5547 41 37.1641 41 36.5771C41 35.9902 41.3984 35.5996 42 35.5996H50C50.6016 35.5996 51 35.9902 51 36.5771C51 37.1641 50.6016 37.5547 50 37.5547H42ZM52 41.4658H42C41.3984 41.4658 41 41.0752 41 40.4883C41 39.9014 41.3984 39.5107 42 39.5107H52C52.6016 39.5107 53 39.9014 53 40.4883C53 41.0752 52.6016 41.4658 52 41.4658ZM48 45.377H42C41.3984 45.377 41 44.9863 41 44.3994C41 43.959 41.2266 43.6289 41.5938 43.4922C41.7148 43.4463 41.8516 43.4219 42 43.4219H48C48.6016 43.4219 49 43.8125 49 44.3994C49 44.9863 48.6016 45.377 48 45.377ZM38 49.2881C38.5508 49.2881 39 48.8506 39 48.3105C39 47.7705 38.5508 47.333 38 47.333C37.9258 47.333 37.8555 47.3408 37.7852 47.3555L37.6758 47.3857L37.5859 47.4199C37.2422 47.5732 37 47.9141 37 48.3105C37 48.8506 37.4492 49.2881 38 49.2881ZM55 48.3105C55 47.7236 54.6016 47.333 54 47.333H42C41.7109 47.333 41.4688 47.4238 41.293 47.584C41.1055 47.7559 41 48.0068 41 48.3105C41 48.8975 41.3984 49.2881 42 49.2881H54C54.6016 49.2881 55 48.8975 55 48.3105ZM38 45.377C38.1523 45.377 38.2969 45.3438 38.4258 45.2852C38.5938 45.208 38.7344 45.0869 38.8359 44.9375C38.9414 44.7832 39 44.5986 39 44.3994C39 43.8594 38.5508 43.4219 38 43.4219C37.7344 43.4219 37.4961 43.5225 37.3164 43.6875C37.1211 43.8662 37 44.1191 37 44.3994C37 44.9395 37.4492 45.377 38 45.377ZM38 41.4658C38.2656 41.4658 38.5078 41.3643 38.6875 41.1982C38.8789 41.0195 39 40.7676 39 40.4883C39 39.9482 38.5508 39.5107 38 39.5107C37.4492 39.5107 37 39.9482 37 40.4883C37 41.0283 37.4492 41.4658 38 41.4658ZM41 52.2217C41 51.6348 41.3984 51.2441 42 51.2441H50C50.6016 51.2441 51 51.6348 51 52.2217C51 52.8086 50.6016 53.1992 50 53.1992H42C41.3984 53.1992 41 52.8086 41 52.2217ZM38 53.1992C38.1367 53.1992 38.2656 53.1729 38.3828 53.124C38.6953 52.9951 38.9336 52.7139 38.9883 52.374L39 52.2217C39 51.9521 38.8867 51.708 38.707 51.5312C38.5859 51.4111 38.4297 51.3223 38.2578 51.2773C38.1758 51.2559 38.0898 51.2441 38 51.2441C37.9062 51.2441 37.8125 51.2568 37.7266 51.2803L37.5391 51.3545C37.4648 51.3926 37.3945 51.4395 37.332 51.4941C37.1289 51.6729 37 51.9326 37 52.2217C37 52.7617 37.4492 53.1992 38 53.1992ZM38 37.5547C38.5508 37.5547 39 37.1172 39 36.5771C39 36.0371 38.5508 35.5996 38 35.5996C37.7227 35.5996 37.4727 35.709 37.2891 35.8867C37.1094 36.0635 37 36.3076 37 36.5771C37 37.1172 37.4492 37.5547 38 37.5547Z" fill="#519032"/>
<mask id="mask0" mask-type="alpha" maskUnits="userSpaceOnUse" x="21" y="18" width="38" height="44">
<path fill-rule="evenodd" clip-rule="evenodd" d="M37 18H55C57.1992 18 59 19.7598 58.6016 21.9111V60.1426C58.6016 60.5332 58.3984 60.8271 58.1016 61.0225C57.8984 61.1201 57.8008 61.1201 57.6016 61.1201C57.4961 61.1201 57.3906 61.0938 57.2852 61.0547L57 60.9248L54.6016 59.3604L52.1992 60.9248C52.0586 61.0156 51.875 61.0645 51.6875 61.0713C51.4727 61.0781 51.2578 61.0293 51.1016 60.9248L48.6992 59.3604L46.3008 60.9248C46 61.1201 45.5 61.1201 45.1992 60.9248L42.8008 59.3604L40.3984 60.9248C40.2383 61.0293 40.0195 61.0781 39.8047 61.0713C39.6211 61.0645 39.4414 61.0156 39.3008 60.9248L36.8984 59.3604L34.5 60.9248C34.1992 61.1201 33.8008 61.1201 33.5 60.9248C33.1992 60.7285 33 60.4355 33 60.0449V21.9111C33 20.8359 32.1016 19.9551 31 19.9551C30.2422 19.9551 29.5781 20.374 29.2383 20.9863C29.0859 21.2617 29 21.5771 29 21.9111V39.5107C29 39.8848 28.9102 40.2588 28.7812 40.6172C28.6719 40.915 28.5352 41.2012 28.3984 41.4668H30C30.6016 41.4668 31 41.8574 31 42.4443C31 43.0312 30.6016 43.4219 30 43.4219H25C22.8008 43.4219 21 41.6621 21 39.5107V30.7109C21 30.124 21.3984 29.7334 22 29.7334H24C24.6016 29.7334 25 30.124 25 30.7109C25 31.2979 24.6016 31.6885 24 31.6885H23V39.5107C23 40.5869 23.8984 41.4668 25 41.4668C25.5469 41.4668 26.043 41.25 26.4062 40.9004C26.7734 40.5449 27 40.0527 27 39.5107V21.9111C27 19.7598 28.8984 18 31.1016 18C33.3008 18 35.1016 19.7598 35.1016 21.9111V58.2842L36.5 57.3066C36.8008 57.1113 37.3008 57.1113 37.6016 57.3066L40 58.8711L42.5 57.3066C42.8008 57.1113 43.3008 57.1113 43.6016 57.3066L46 58.8711L48.5 57.3066C48.8008 57.1113 49.3008 57.1113 49.6016 57.3066L52 58.8711L54.5 57.209C54.8008 57.0137 55.3008 57.0137 55.6016 57.209L57 58.1865V21.9111C57 20.8359 56.1016 19.9551 55 19.9551H37C36.3984 19.9551 36 19.5645 36 18.9775C36 18.3906 36.3984 18 37 18ZM39 24.8447H53C53.6016 24.8447 54 25.2354 54 25.8223C54 26.4092 53.6016 26.7998 53 26.7998H39C38.3984 26.7998 38 26.4092 38 25.8223C38 25.2354 38.3984 24.8447 39 24.8447ZM49 30.7109C49.6016 30.7109 50 30.3203 50 29.7334C50 29.1465 49.6016 28.7559 49 28.7559H43C42.3984 28.7559 42 29.1465 42 29.7334C42 30.3203 42.3984 30.7109 43 30.7109H49ZM42 37.5547C41.3984 37.5547 41 37.1641 41 36.5771C41 35.9902 41.3984 35.5996 42 35.5996H50C50.6016 35.5996 51 35.9902 51 36.5771C51 37.1641 50.6016 37.5547 50 37.5547H42ZM52 41.4658H42C41.3984 41.4658 41 41.0752 41 40.4883C41 39.9014 41.3984 39.5107 42 39.5107H52C52.6016 39.5107 53 39.9014 53 40.4883C53 41.0752 52.6016 41.4658 52 41.4658ZM48 45.377H42C41.3984 45.377 41 44.9863 41 44.3994C41 43.959 41.2266 43.6289 41.5938 43.4922C41.7148 43.4463 41.8516 43.4219 42 43.4219H48C48.6016 43.4219 49 43.8125 49 44.3994C49 44.9863 48.6016 45.377 48 45.377ZM38 49.2881C38.5508 49.2881 39 48.8506 39 48.3105C39 47.7705 38.5508 47.333 38 47.333C37.9258 47.333 37.8555 47.3408 37.7852 47.3555L37.6758 47.3857L37.5859 47.4199C37.2422 47.5732 37 47.9141 37 48.3105C37 48.8506 37.4492 49.2881 38 49.2881ZM55 48.3105C55 47.7236 54.6016 47.333 54 47.333H42C41.7109 47.333 41.4688 47.4238 41.293 47.584C41.1055 47.7559 41 48.0068 41 48.3105C41 48.8975 41.3984 49.2881 42 49.2881H54C54.6016 49.2881 55 48.8975 55 48.3105ZM38 45.377C38.1523 45.377 38.2969 45.3438 38.4258 45.2852C38.5938 45.208 38.7344 45.0869 38.8359 44.9375C38.9414 44.7832 39 44.5986 39 44.3994C39 43.8594 38.5508 43.4219 38 43.4219C37.7344 43.4219 37.4961 43.5225 37.3164 43.6875C37.1211 43.8662 37 44.1191 37 44.3994C37 44.9395 37.4492 45.377 38 45.377ZM38 41.4658C38.2656 41.4658 38.5078 41.3643 38.6875 41.1982C38.8789 41.0195 39 40.7676 39 40.4883C39 39.9482 38.5508 39.5107 38 39.5107C37.4492 39.5107 37 39.9482 37 40.4883C37 41.0283 37.4492 41.4658 38 41.4658ZM41 52.2217C41 51.6348 41.3984 51.2441 42 51.2441H50C50.6016 51.2441 51 51.6348 51 52.2217C51 52.8086 50.6016 53.1992 50 53.1992H42C41.3984 53.1992 41 52.8086 41 52.2217ZM38 53.1992C38.1367 53.1992 38.2656 53.1729 38.3828 53.124C38.6953 52.9951 38.9336 52.7139 38.9883 52.374L39 52.2217C39 51.9521 38.8867 51.708 38.707 51.5312C38.5859 51.4111 38.4297 51.3223 38.2578 51.2773C38.1758 51.2559 38.0898 51.2441 38 51.2441C37.9062 51.2441 37.8125 51.2568 37.7266 51.2803L37.5391 51.3545C37.4648 51.3926 37.3945 51.4395 37.332 51.4941C37.1289 51.6729 37 51.9326 37 52.2217C37 52.7617 37.4492 53.1992 38 53.1992ZM38 37.5547C38.5508 37.5547 39 37.1172 39 36.5771C39 36.0371 38.5508 35.5996 38 35.5996C37.7227 35.5996 37.4727 35.709 37.2891 35.8867C37.1094 36.0635 37 36.3076 37 36.5771C37 37.1172 37.4492 37.5547 38 37.5547Z" fill="white"/>
</mask>
<g mask="url(#mask0)">
<rect x="18" y="18" width="44" height="44" fill="#519032"/>
</g>
</svg>
