<svg id="Слой_1" data-name="Слой 1" xmlns="http://www.w3.org/2000/svg" width="18" height="8" viewBox="0 0 18 8">
  <defs>
    <style>
      .cls-1 {
        fill: #17da9a;
      }
    </style>
  </defs>
  <title>icon-more-green</title>
  <path id="Shape" class="cls-1" d="M17.9,3.73l-4-3.65A0.33,0.33,0,0,0,13.53,0a0.3,0.3,0,0,0-.2.3V2.67h-13A0.32,0.32,0,0,0,0,3V5a0.32,0.32,0,0,0,.33.33h13V7.67a0.31,0.31,0,0,0,.2.3,0.32,0.32,0,0,0,.36-0.06l4-3.69A0.34,0.34,0,0,0,18,4,0.33,0.33,0,0,0,17.9,3.73Z" transform="translate(0 0)"/>
</svg>
