<?xml version="1.0" encoding="UTF-8"?>
<svg width="18px" height="8px" viewBox="0 0 18 8" version="1.1" xmlns="http://www.w3.org/2000/svg" xmlns:xlink="http://www.w3.org/1999/xlink">
    <!-- Generator: Sketch 51 (57462) - http://www.bohemiancoding.com/sketch -->
    <title>Shape</title>
    <desc>Created with Sketch.</desc>
    <defs></defs>
    <g id="Symbols" stroke="none" stroke-width="1" fill="none" fill-rule="evenodd">
        <g id="left-side/VXL" transform="translate(-160.000000, -952.000000)" fill="#3A2DB0" fill-rule="nonzero">
            <path d="M177.897245,955.732374 L173.897003,952.086174 C173.785861,951.995902 173.664356,951.978534 173.532379,952.034105 C173.400548,952.089749 173.334359,952.190383 173.334359,952.336298 L173.334359,954.669846 L160.333354,954.669846 C160.236077,954.669846 160.156168,954.701043 160.093737,954.763547 C160.031343,954.826014 160,954.905922 160,955.003126 L160,957.003247 C160,957.100415 160.031197,957.180323 160.093701,957.242717 C160.156278,957.305185 160.236186,957.336382 160.333317,957.336382 L173.334432,957.336382 L173.334432,959.669893 C173.334432,959.808985 173.400731,959.909618 173.532489,959.97194 C173.664575,960.02773 173.78608,960.00664 173.897222,959.909618 L177.897464,956.22153 C177.9669,956.15213 178.001527,956.068938 178.001527,955.971625 C178.001527,955.881573 177.966681,955.80181 177.897245,955.732374 Z" id="Shape"></path>
        </g>
    </g>
</svg>