<svg width="26" height="26" viewBox="0 0 26 26" fill="none" xmlns="http://www.w3.org/2000/svg">
<path fill-rule="evenodd" clip-rule="evenodd" d="M26 13C26 20.1797 20.1797 26 13 26C5.82031 26 0 20.1797 0 13C0 5.82031 5.82031 0 13 0C20.1797 0 26 5.82031 26 13ZM11.5742 18.8986L18.8281 13.8192C19.3984 13.4211 19.3984 12.5789 18.8281 12.1808L11.5742 7.10144C10.9102 6.63745 10 7.11157 10 7.92065V18.0793C10 18.8884 10.9102 19.3625 11.5742 18.8986Z" fill="#979797"/>
<mask id="mask0" mask-type="alpha" maskUnits="userSpaceOnUse" x="0" y="0" width="26" height="26">
<path fill-rule="evenodd" clip-rule="evenodd" d="M26 13C26 20.1797 20.1797 26 13 26C5.82031 26 0 20.1797 0 13C0 5.82031 5.82031 0 13 0C20.1797 0 26 5.82031 26 13ZM11.5742 18.8986L18.8281 13.8192C19.3984 13.4211 19.3984 12.5789 18.8281 12.1808L11.5742 7.10144C10.9102 6.63745 10 7.11157 10 7.92065V18.0793C10 18.8884 10.9102 19.3625 11.5742 18.8986Z" fill="white"/>
</mask>
<g mask="url(#mask0)">
<rect width="26" height="26" fill="#12314"/>
</g>
</svg>
