<svg width="36" height="16" viewBox="0 0 36 16" fill="none" xmlns="http://www.w3.org/2000/svg">
<path id="Shape Copy 2" d="M35.7915 7.45942L27.7916 0.167634C27.5694 -0.0128927 27.3264 -0.0476263 27.0625 0.0635065C26.7988 0.174785 26.6665 0.376035 26.6665 0.667841V5.33454H0.66665C0.472113 5.33454 0.31231 5.39693 0.187459 5.52193C0.0626809 5.64685 0 5.80665 0 6.00104V10.0009C0 10.1953 0.062389 10.3551 0.187386 10.4798C0.312529 10.6048 0.472332 10.6672 0.666577 10.6672H26.6666V15.3338C26.6666 15.6119 26.7992 15.8132 27.0627 15.9378C27.3268 16.0494 27.5698 16.0072 27.7921 15.8132L35.7919 8.43765C35.9308 8.29886 36 8.13249 36 7.93788C36 7.75779 35.9303 7.59828 35.7915 7.45942Z" fill="white"/>
</svg>
