<?xml version="1.0" encoding="UTF-8"?>
<svg width="26px" height="20px" viewBox="0 0 26 20" version="1.1" xmlns="http://www.w3.org/2000/svg" xmlns:xlink="http://www.w3.org/1999/xlink">
    <!-- Generator: Sketch 50.2 (55047) - http://www.bohemiancoding.com/sketch -->
    <title>icons/black/check</title>
    <desc>Created with Sketch.</desc>
    <defs>
        <path d="M0.3,11 C0.1,10.8 0,10.5 0,10.3 C0,10.1 0.1,9.8 0.3,9.6 L1.7,8.2 C2.1,7.8 2.7,7.8 3.1,8.2 L3.2,8.3 L8.7,14.2 C8.9,14.4 9.2,14.4 9.4,14.2 L22.8,0.3 L22.9,0.3 C23.3,-0.1 23.9,-0.1 24.3,0.3 L25.7,1.7 C26.1,2.1 26.1,2.7 25.7,3.1 L9.7,19.7 C9.5,19.9 9.3,20 9,20 C8.7,20 8.5,19.9 8.3,19.7 L0.5,11.3 L0.3,11 Z" id="path-1"></path>
    </defs>
    <g id="Website" stroke="none" stroke-width="1" fill="none" fill-rule="evenodd">
        <g id="Design-System" transform="translate(-404.000000, -1293.000000)">
            <g id="Group-7" transform="translate(304.000000, 1268.000000)">
                <g id="icons/black/check" transform="translate(100.000000, 25.000000)">
                    <mask id="mask-2" fill="white">
                        <use xlink:href="#path-1"></use>
                    </mask>
                    <use id="Mask" fill="#000000" fill-rule="nonzero" xlink:href="#path-1"></use>
                </g>
            </g>
        </g>
    </g>
</svg>