<?xml version="1.0" encoding="UTF-8"?>
<svg width="70px" height="70px" viewBox="0 0 70 70" version="1.1" xmlns="http://www.w3.org/2000/svg"
		 xmlns:xlink="http://www.w3.org/1999/xlink">
	<!-- Generator: Sketch 50.2 (55047) - http://www.bohemiancoding.com/sketch -->
	<title>icons/black/khabarovsk</title>
	<desc>Created with Sketch.</desc>
	<defs>
		<path
			d="M35,1 C16.2223185,1 1,16.2223185 1,35 C1,53.7776815 16.2223185,69 35,69 C53.7776815,69 69,53.7776815 69,35 C69,16.2223185 53.7776815,1 35,1 Z M35,0 C54.3299662,-3.55085719e-15 70,15.6700338 70,35 C70,54.3299662 54.3299662,70 35,70 C15.6700338,70 2.36723813e-15,54.3299662 0,35 C-2.36723813e-15,15.6700338 15.6700338,3.55085719e-15 35,0 Z M25.6216866,63.5070675 L25.6216866,59.7556776 L27.1101023,58.8922941 L27.1101023,57.4987856 L31.5505049,54.3661255 C30.9302282,51.6638819 30.5046472,50.0069961 30.2737618,49.3954683 C30.0428764,48.7839404 30.0428764,47.4601567 30.2737618,45.4241172 L29.5652054,41.9453406 C28.5961163,41.8031173 28.0007666,41.5626068 27.7791564,41.2238093 C27.4467411,40.7156131 27.6281037,35.4422837 28.1070997,34.4376076 C28.4264304,33.7678235 28.4869213,33.273182 28.2885723,32.9536831 L28.7655765,31.1422555 C28.2702369,30.0666429 27.9414301,29.5288365 27.7791564,29.5288365 C27.5357457,29.5288365 26.6988258,29.4399955 26.6988258,29.2524131 C26.6988258,29.0648307 25.9345846,26.359824 25.9345846,26.2241093 C25.9345846,26.0883946 25.1931726,25.739076 25.1931726,25.739076 C25.1931726,25.739076 26.0982232,24.0978833 26.0982232,24.0978833 C26.0982232,24.0978833 26.4366474,23.4555822 26.5677366,23.4555822 C26.6988258,23.4555822 29.4120743,23.8823519 29.5652054,23.7468124 C29.7183365,23.6112729 29.9035557,22.7007842 29.9035557,22.7007842 C29.9035557,22.7007842 30.1505742,22.2446637 30.027065,22.1023779 C29.9035557,21.9600921 29.1610736,21.0220924 29.1610736,20.7427778 C29.1610736,20.4634631 28.7655765,19.5046112 28.7655765,19.0019674 C28.7655765,18.4993237 28.7704812,17.8990775 28.9657774,17.6907304 C29.1610736,17.4823834 30.2615096,17.0359881 30.3891209,16.9085092 C30.5167322,16.7810302 31.1864059,16.9085092 31.3684554,16.9085092 C31.4898217,16.9085092 31.8217063,16.9085092 32.3641092,16.9085092 C32.5460289,17.262004 32.6369887,17.4387515 32.6369887,17.4387515 C32.6369887,17.4387515 33.2301005,17.7287551 33.3749229,17.9238723 C33.5197453,18.1189896 33.9168475,18.879132 33.9168475,19.0019674 C33.9168475,19.1248028 33.9168475,19.4449458 33.9168475,19.4449458 C33.9168475,19.4449458 33.9168475,19.7685057 33.9168475,19.7685057 C33.9168475,19.7685057 33.7938733,19.9376015 33.7938733,20.0760322 C33.7938733,20.214463 34.061759,20.7427778 34.061759,20.7427778 C34.061759,20.7427778 34.061759,21.1663933 34.061759,21.1663933 C34.061759,21.1663933 33.9168475,21.3607221 33.9168475,21.3607221 C33.9168475,21.3607221 34.0398217,21.8651181 33.9168475,21.983748 C33.7938733,22.1023779 33.3749229,22.5058422 33.3749229,22.5058422 C33.3749229,22.5058422 33.5740537,22.7411744 33.5740537,22.8776776 C33.5740537,23.0141809 33.7938733,23.7468124 33.7938733,23.7468124 C33.7938733,23.7468124 36.2197372,23.8999623 36.5280197,23.8999623 C36.8363023,23.8999623 37.9300501,24.125657 38.069611,24.6126178 C38.209172,25.0995786 38.999631,26.3771716 39.2053608,26.7002935 C39.4110906,27.0234154 39.6360825,28.021869 39.6360825,28.2598297 C39.6360825,28.4977904 39.4887632,29.4121342 38.7791871,29.4121342 C38.3061364,29.4121342 38.1372959,29.3588938 38.2726655,29.2524131 C38.4080352,30.0940954 38.4080352,30.567622 38.2726655,30.6729929 C38.069611,30.8310492 37.8886722,31.0023354 37.6965864,31.1422555 C37.5045006,31.2821757 36.8911458,31.4813232 36.8911458,31.4813232 C36.8911458,31.4813232 37.5372283,32.8330381 37.5372283,32.9536831 C37.5372283,33.0743281 36.8911458,33.8610177 36.8911458,34.0146934 C36.8911458,34.168369 37.3778702,36.2876735 37.5372283,36.2876735 C37.6965864,36.2876735 40.5620896,40.5663455 40.5620896,41.9453406 C40.5620896,43.3243357 41.0984852,50.238513 41.0984852,50.4910177 C41.0984852,50.7435224 41.6842846,51.8768145 41.9602853,52.0774515 C42.2362861,52.2780884 43.5500318,52.5663398 43.6802293,52.7661006 C43.7670276,52.8992745 43.8124481,53.059346 43.8164907,53.2463151 C43.6464612,53.3813581 43.5012524,53.4488795 43.3808643,53.4488795 C43.2604763,53.4488795 43.2207036,53.6675067 43.2615464,54.1047609 C43.9717467,54.3867624 44.3268469,54.5277632 44.3268469,54.5277632 C44.3268469,54.5277632 45.0728961,55.3411752 45.0728961,55.3411752 C45.0728961,55.3411752 45.0728961,55.5323206 45.0728961,55.9146114 L44.3268469,55.9146114 L44.1772982,56.3551365 L44.0413043,57.7796589 L45.441016,57.9548001 L45.441016,61.8396352 L49.2592593,63.0225663 L49.2592593,65.0616836 L48.6817463,65.5473004 L47.6065196,66.6668886 L47.6065196,67.3752065 C42.5932775,68.9872113 38.6071537,69.7932137 35.6481481,69.7932137 C32.6891426,69.7932137 28.3123921,68.9872113 22.5178966,67.3752065 L22.037037,65.5473004 L25.6216866,63.5070675 Z"
			id="path-1"></path>
	</defs>
	<g id="Website" stroke="none" stroke-width="1" fill="none" fill-rule="evenodd">
		<g id="Design-System" transform="translate(-304.000000, -1268.000000)">
			<g id="Group-7" transform="translate(304.000000, 1268.000000)">
				<g id="icons/black/khabarovsk">
					<mask id="mask-2" fill="white">
						<use xlink:href="#path-1"></use>
					</mask>
					<use id="Mask" fill="white" fill-rule="nonzero" xlink:href="#path-1"></use>
				</g>
			</g>
		</g>
	</g>
</svg>