<?xml version="1.0" encoding="UTF-8"?>
<svg width="26px" height="28px" viewBox="0 0 26 28" version="1.1" xmlns="http://www.w3.org/2000/svg" xmlns:xlink="http://www.w3.org/1999/xlink">
    <!-- Generator: Sketch 50.2 (55047) - http://www.bohemiancoding.com/sketch -->
    <title>icons/black/idea</title>
    <desc>Created with Sketch.</desc>
    <defs>
        <path d="M13,4.14814815 C8.12552,4.14814815 4.16,8.10237037 4.16,12.962963 C4.16,16.6506667 6.44332,19.9173333 9.88,21.2074074 L9.88,25.9259259 C9.88,26.2126667 10.11244,26.4444444 10.4,26.4444444 L10.92,26.4444444 L10.92,27.4814815 C10.92,27.7682222 11.15244,28 11.44,28 L14.56,28 C14.84756,28 15.08,27.7682222 15.08,27.4814815 L15.08,26.4444444 L15.6,26.4444444 C15.88756,26.4444444 16.12,26.2126667 16.12,25.9259259 L16.12,21.2074074 C19.55668,19.9173333 21.84,16.6506667 21.84,12.962963 C21.84,8.10237037 17.87448,4.14814815 13,4.14814815 Z M14.56,25.4074074 C14.27244,25.4074074 14.04,25.6391852 14.04,25.9259259 L14.04,26.962963 L11.96,26.962963 L11.96,25.9259259 C11.96,25.6391852 11.72756,25.4074074 11.44,25.4074074 L10.92,25.4074074 L10.92,22.8148148 L15.08,22.8148148 L15.08,25.4074074 L14.56,25.4074074 Z M15.43776,20.3477037 C15.22404,20.4177037 15.08,20.6168148 15.08,20.8402963 L15.08,21.7777778 L10.92,21.7777778 L10.92,20.8402963 C10.92,20.6162963 10.77596,20.4177037 10.56224,20.3477037 C7.3554,19.2961481 5.2,16.3281481 5.2,12.962963 C5.2,8.6742963 8.69908,5.18518519 13,5.18518519 C17.30092,5.18518519 20.8,8.6742963 20.8,12.962963 C20.8,16.3281481 18.6446,19.2961481 15.43776,20.3477037 Z M13,3.11111111 C12.71244,3.11111111 12.48,2.87933333 12.48,2.59259259 L12.48,0.518518519 C12.48,0.231777778 12.71244,0 13,0 C13.28756,0 13.52,0.231777778 13.52,0.518518519 L13.52,2.59259259 C13.52,2.87933333 13.28756,3.11111111 13,3.11111111 Z M25.48,12.4444444 C25.76756,12.4444444 26,12.6762222 26,12.962963 C26,13.2497037 25.76756,13.4814815 25.48,13.4814815 L23.4,13.4814815 C23.11244,13.4814815 22.88,13.2497037 22.88,12.962963 C22.88,12.6762222 23.11244,12.4444444 23.4,12.4444444 L25.48,12.4444444 Z M2.6,12.4444444 C2.88756,12.4444444 3.12,12.6762222 3.12,12.962963 C3.12,13.2497037 2.88756,13.4814815 2.6,13.4814815 L0.52,13.4814815 C0.23244,13.4814815 1.45661261e-13,13.2497037 1.45661261e-13,12.962963 C1.45661261e-13,12.6762222 0.23244,12.4444444 0.52,12.4444444 L2.6,12.4444444 Z M21.45728,3.79659259 C21.66008,3.59437037 21.98924,3.59385185 22.19256,3.79659259 C22.39588,3.99933333 22.39588,4.32703704 22.19256,4.52977778 L20.722,5.99614815 C20.6206,6.09725926 20.48748,6.14807407 20.35436,6.14807407 C20.22124,6.14807407 20.08812,6.09725926 19.98672,5.99614815 C19.7834,5.79340741 19.7834,5.4657037 19.98672,5.26296296 L21.45728,3.79659259 Z M5.278,19.9297778 C5.48132,19.727037 5.80996,19.727037 6.01328,19.9297778 C6.2166,20.1325185 6.2166,20.4602222 6.01328,20.662963 L4.54272,22.1293333 C4.44132,22.2304444 4.3082,22.2812593 4.17508,22.2812593 C4.04196,22.2812593 3.90884,22.2304444 3.80744,22.1293333 C3.60412,21.9265926 3.60412,21.5988889 3.80744,21.3961481 L5.278,19.9297778 Z M20.722,19.9297778 L22.19256,21.3961481 C22.39588,21.5988889 22.39588,21.9265926 22.19256,22.1293333 C22.09116,22.2304444 21.95804,22.2812593 21.82492,22.2812593 C21.6918,22.2812593 21.55868,22.2304444 21.45728,22.1293333 L19.98672,20.662963 C19.7834,20.4602222 19.7834,20.1325185 19.98672,19.9297778 C20.19004,19.727037 20.51868,19.727037 20.722,19.9297778 Z M5.278,5.99614815 L3.80744,4.52977778 C3.60412,4.32703704 3.60412,3.99933333 3.80744,3.79659259 C4.01076,3.59385185 4.3394,3.59385185 4.54272,3.79659259 L6.01328,5.26296296 C6.2166,5.4657037 6.2166,5.79340741 6.01328,5.99614815 C5.91188,6.09725926 5.77876,6.14807407 5.64564,6.14807407 C5.51252,6.14807407 5.3794,6.09725926 5.278,5.99614815 Z M13,6.74074074 C9.55916,6.74074074 6.76,9.53192593 6.76,12.962963 C6.76,13.2497037 6.99244,13.4814815 7.28,13.4814815 C7.56756,13.4814815 7.8,13.2497037 7.8,12.962963 C7.8,10.1038519 10.13272,7.77777778 13,7.77777778 C13.28756,7.77777778 13.52,7.546 13.52,7.25925926 C13.52,6.97251852 13.28756,6.74074074 13,6.74074074 Z" id="path-1"></path>
    </defs>
    <g id="Website" stroke="none" stroke-width="1" fill="none" fill-rule="evenodd">
        <g id="Design-System" transform="translate(-516.000000, -1289.000000)">
            <g id="Group-7" transform="translate(304.000000, 1268.000000)">
                <g id="icons/black/idea" transform="translate(212.000000, 21.000000)">
                    <mask id="mask-2" fill="white">
                        <use xlink:href="#path-1"></use>
                    </mask>
                    <use id="Mask" fill="#000000" fill-rule="nonzero" xlink:href="#path-1"></use>
                </g>
            </g>
        </g>
    </g>
</svg>