<svg id="Слой_1" data-name="Слой 1" xmlns="http://www.w3.org/2000/svg" width="18" height="8" viewBox="0 0 18 8">
  <defs>
    <style>
      .cls-1 {
        fill: #17da9a;
        isolation: isolate;
      }
    </style>
  </defs>
  <title>icon-less-green</title>
  <path id="Shape_Copy" data-name="Shape Copy" class="cls-1" d="M0.1,3.73l4-3.65A0.33,0.33,0,0,1,4.47,0a0.3,0.3,0,0,1,.2.3V2.67h13A0.32,0.32,0,0,1,18,3V5a0.32,0.32,0,0,1-.33.33h-13V7.67a0.31,0.31,0,0,1-.2.3A0.32,0.32,0,0,1,4.1,7.91l-4-3.69A0.34,0.34,0,0,1,0,4,0.33,0.33,0,0,1,.1,3.73Z" transform="translate(0 0)"/>
</svg>
