<?xml version="1.0" encoding="UTF-8"?>
<svg width="22px" height="16px" viewBox="0 0 22 16" version="1.1" xmlns="http://www.w3.org/2000/svg" xmlns:xlink="http://www.w3.org/1999/xlink">
    <!-- Generator: Sketch 50.2 (55047) - http://www.bohemiancoding.com/sketch -->
    <title>icons/black/mail</title>
    <desc>Created with Sketch.</desc>
    <defs>
        <path d="M21.1076969,20 L2.89230308,20 C1.84955866,20 1,19.1360045 1,18.0718471 L1,5.92815293 C1,4.86399551 1.84955866,4 2.89230308,4 L21.1076969,4 C22.1504413,4 23,4.86399551 23,5.92815293 L23,18.0718471 C23,19.1360045 22.1504413,20 21.1076969,20 Z M2.89230308,5.006844 C2.39072144,5.006844 1.98353067,5.42106866 1.98353067,5.92815293 L1.98353067,18.0718471 C1.98353067,18.5789313 2.39072144,18.993156 2.89230308,18.993156 L21.1076969,18.993156 C21.6092786,18.993156 22.0164693,18.5789313 22.0164693,18.0718471 L22.0164693,5.92815293 C22.0164693,5.42106866 21.6092786,5.006844 21.1076969,5.006844 L2.89230308,5.006844 Z M12,13.9374921 C11.487928,13.9374921 10.9938815,13.760043 10.6224021,13.4306747 L1.67345358,5.49648979 C1.46750314,5.3131614 1.44597364,4.99401128 1.6259306,4.78478591 C1.80427987,4.57543339 2.11348583,4.55419581 2.31825577,4.7354719 L11.2662142,12.6693995 C11.6611612,13.0190813 12.3395913,13.0188805 12.7337009,12.6694748 L21.6788883,4.7368586 C21.8827079,4.55354882 22.1916136,4.57509435 22.3715211,4.78497559 C22.5519256,4.99472368 22.5303961,5.3138738 22.3242359,5.4973885 L13.3777204,13.4298536 C13.0063646,13.7598588 12.5123648,13.9374921 12,13.9374921 Z" id="path-1"></path>
    </defs>
    <g id="Website" stroke="none" stroke-width="1" fill="none" fill-rule="evenodd">
        <g id="Design-System" transform="translate(-573.000000, -1295.000000)">
            <g id="Group-7" transform="translate(304.000000, 1268.000000)">
                <g id="icons/black/mail" transform="translate(268.000000, 23.000000)">
                    <mask id="mask-2" fill="white">
                        <use xlink:href="#path-1"></use>
                    </mask>
                    <use id="Mask" fill="#000000" fill-rule="nonzero" xlink:href="#path-1"></use>
                </g>
            </g>
        </g>
    </g>
</svg>