<svg width="19" height="8" viewBox="0 0 19 8" fill="none" xmlns="http://www.w3.org/2000/svg">
<path id="Shape" d="M17.8972 3.73002L13.897 0.0838242C13.7859 -0.00644691 13.6644 -0.0238152 13.5324 0.0317559C13.4005 0.0874 13.3344 0.188034 13.3344 0.333949V2.6675H0.333354C0.236077 2.6675 0.156168 2.69869 0.0937374 2.7612C0.0313431 2.82366 0 2.90357 0 3.00078V5.0009C0 5.09807 0.0311972 5.17797 0.0937009 5.24037C0.156278 5.30283 0.236186 5.33403 0.333317 5.33403H13.3344V7.66754C13.3344 7.80664 13.4007 7.90727 13.5325 7.96959C13.6646 8.02538 13.7861 8.00429 13.8972 7.90727L17.8975 4.21918C17.9669 4.14978 18.0015 4.06659 18.0015 3.96928C18.0015 3.87922 17.9667 3.79946 17.8972 3.73002Z" fill="#3A2DB0"/>
</svg>
