<?xml version="1.0" encoding="utf-8"?>
<!-- Generator: Adobe Illustrator 19.2.1, SVG Export Plug-In . SVG Version: 6.00 Build 0)  -->
<svg version="1.1" id="Слой_1" xmlns="http://www.w3.org/2000/svg" xmlns:xlink="http://www.w3.org/1999/xlink" x="0px" y="0px"
	 viewBox="0 0 19 8" style="enable-background:new 0 0 19 8;" xml:space="preserve">
<style type="text/css">
	.st0{fill:#3A2DB0;}
</style>
<path id="Shape" class="st0" d="M1,4c0,0.1,0,0.2,0.1,0.2l4,3.7C5.2,8,5.3,8,5.5,8c0.1-0.1,0.2-0.2,0.2-0.3V5.3h13
	c0.1,0,0.2,0,0.2-0.1C19,5.2,19,5.1,19,5V3c0-0.1,0-0.2-0.1-0.2c-0.1-0.1-0.1-0.1-0.2-0.1h-13V0.3c0-0.1-0.1-0.2-0.2-0.3
	C5.3,0,5.2,0,5.1,0.1l-4,3.6C1,3.8,1,3.9,1,4z"/>
</svg>
