<?xml version="1.0" encoding="UTF-8"?>
<svg width="22px" height="22px" viewBox="0 0 22 22" version="1.1" xmlns="http://www.w3.org/2000/svg" xmlns:xlink="http://www.w3.org/1999/xlink">
    <!-- Generator: Sketch 50.2 (55047) - http://www.bohemiancoding.com/sketch -->
    <title>icons/black/telephone</title>
    <desc>Created with Sketch.</desc>
    <defs>
        <path d="M19.5198919,14.1142473 C19.0397063,13.6164875 18.4605134,13.3503584 17.8466678,13.3503584 C17.2377727,13.3503584 16.6536294,13.6115591 16.1536423,14.109319 L14.5893263,15.6617384 C14.4606167,15.5927419 14.3319072,15.5286738 14.208148,15.4646057 C14.0299348,15.3758961 13.8616223,15.2921147 13.7180617,15.203405 C12.252753,14.2768817 10.9211042,13.0694444 9.64390954,11.5071685 C9.02511365,10.7284946 8.60928281,10.0730287 8.30731042,9.40770609 C8.71324052,9.03808244 9.08946842,8.65367384 9.45579559,8.28405018 C9.59440586,8.14605735 9.73301614,8.0031362 9.87162642,7.86514337 C10.9112035,6.83019713 10.9112035,5.48969534 9.87162642,4.4547491 L8.5201762,3.109319 C8.36671482,2.95654122 8.20830307,2.79883513 8.05979206,2.64112903 C7.76277003,2.33557348 7.45089691,2.02016129 7.12912304,1.72446237 C6.64893743,1.25134409 6.07469485,1 5.47075006,1 C4.86680527,1 4.28266195,1.25134409 3.78762524,1.72446237 C3.78267488,1.72939068 3.78267488,1.72939068 3.77772451,1.734319 L2.09459969,3.42473118 C1.4609527,4.05555556 1.0995759,4.82437276 1.02037003,5.71639785 C0.901561218,7.15546595 1.32729279,8.49596774 1.65401702,9.37320789 C2.45597649,11.5268817 3.65396533,13.5228495 5.44104786,15.6617384 C7.60930865,18.2392473 10.2181521,20.2746416 13.1982731,21.7087814 C14.3368576,22.2459677 15.8566203,22.8817204 17.5545962,22.9901434 C17.6585539,22.9950717 17.767462,23 17.8664693,23 C19.0100041,23 19.9703753,22.5909498 20.7228311,21.7777778 C20.7277815,21.7679211 20.7376822,21.7629928 20.7426326,21.7531362 C21.0000517,21.4426523 21.2970737,21.1617384 21.6089468,20.8611111 C21.8218126,20.6590502 22.0396288,20.4471326 22.2524946,20.2253584 C22.7425809,19.7177419 23,19.1263441 23,18.5201613 C23,17.9090502 22.7376305,17.3225806 22.2376435,16.8297491 L19.5198919,14.1142473 Z M21.2921233,19.3037634 C21.287173,19.3037634 21.287173,19.3086918 21.2921233,19.3037634 C21.099059,19.5107527 20.9010443,19.6980287 20.6881786,19.9050179 C20.3664047,20.2105735 20.0396805,20.530914 19.7327577,20.890681 C19.2327706,21.4229391 18.6436769,21.6742832 17.8714197,21.6742832 C17.7971642,21.6742832 17.7179583,21.6742832 17.6437028,21.6693548 C16.1734438,21.5757168 14.8071424,21.0040323 13.7824164,20.516129 C10.9805087,19.1657706 8.5201762,17.2486559 6.47567458,14.8189964 C4.7875994,12.7934588 3.6589157,10.9206989 2.91141026,8.90994624 C2.45102612,7.6827957 2.28271364,6.72670251 2.35696915,5.82482079 C2.40647282,5.24820789 2.62923934,4.77016129 3.04011981,4.36111111 L4.72819499,2.68055556 C4.97076298,2.45385305 5.22818207,2.33064516 5.4806508,2.33064516 C5.79252392,2.33064516 6.04499265,2.51792115 6.20340439,2.67562724 C6.20835476,2.68055556 6.21330513,2.68548387 6.21825549,2.69041219 C6.52022789,2.97132616 6.80734918,3.26209677 7.10932157,3.57258065 C7.26278296,3.73028674 7.4211947,3.88799283 7.57960645,4.05062724 L8.93105667,5.39605735 C9.45579559,5.91845878 9.45579559,6.40143369 8.93105667,6.92383513 C8.78749603,7.06675627 8.64888575,7.20967742 8.5053251,7.34767025 C8.08949426,7.77150538 7.69346489,8.16577061 7.26278296,8.55017921 C7.25288222,8.56003584 7.24298149,8.56496416 7.23803112,8.57482079 C6.81229955,8.99865591 6.89150542,9.41263441 6.98061203,9.69354839 C6.9855624,9.70833333 6.99051276,9.72311828 6.99546313,9.73790323 C7.3469392,10.5855735 7.84197591,11.3839606 8.59443171,12.3351254 L8.59938207,12.3400538 C9.9656834,14.015681 11.4062402,15.3216846 12.9953081,16.3221326 C13.1982731,16.4502688 13.4061885,16.5537634 13.6042032,16.6523297 C13.7824164,16.7410394 13.9507289,16.8248208 14.0942896,16.9135305 C14.114091,16.9233871 14.1338925,16.938172 14.153694,16.9480287 C14.3220065,17.03181 14.4804182,17.0712366 14.6437803,17.0712366 C15.0546608,17.0712366 15.3120799,16.8149642 15.3962361,16.7311828 L17.0892617,15.0456989 C17.2575742,14.8781362 17.524894,14.6760753 17.8367671,14.6760753 C18.1436899,14.6760753 18.3961586,14.8682796 18.54962,15.0358423 C18.5545703,15.0407706 18.5545703,15.0407706 18.5595207,15.0456989 L21.287173,17.7612007 C21.7970608,18.2638889 21.7970608,18.781362 21.2921233,19.3037634 Z" id="path-1"></path>
    </defs>
    <g id="Website" stroke="none" stroke-width="1" fill="none" fill-rule="evenodd">
        <g id="Design-System" transform="translate(-627.000000, -1292.000000)">
            <g id="Group-7" transform="translate(304.000000, 1268.000000)">
                <g id="icons/black/telephone" transform="translate(322.000000, 23.000000)">
                    <mask id="mask-2" fill="white">
                        <use xlink:href="#path-1"></use>
                    </mask>
                    <use id="Mask" fill="#000000" fill-rule="nonzero" xlink:href="#path-1"></use>
                </g>
            </g>
        </g>
    </g>
</svg>