<?xml version="1.0" encoding="UTF-8"?>
<svg width="26px" height="26px" viewBox="0 0 26 26" version="1.1" xmlns="http://www.w3.org/2000/svg" xmlns:xlink="http://www.w3.org/1999/xlink">
	<!-- Generator: Sketch 50.2 (55047) - http://www.bohemiancoding.com/sketch -->
	<title>icons/black/send</title>
	<desc>Created with Sketch.</desc>
	<defs>
		<path d="M24.6644029,0.219015031 C25.6496444,-0.312308126 26.2145162,0.156506424 25.923491,1.26395057 L20.751731,20.8572733 C20.4607058,21.9636757 20.2171743,22.8658832 20.2121218,22.8637996 C20.2070693,22.8627578 20.2010063,22.8429634 20.2010063,22.8367126 C20.2010063,22.8304617 19.3582459,22.472079 18.3275317,22.0397278 L14.9362799,20.6166152 C13.9065762,20.1832222 12.2149924,19.4893767 11.1802362,19.0768199 L10.8225177,18.9320083 C9.78776154,18.516326 9.56140862,17.4932685 10.3223182,16.6587786 L20.8214558,5.07072472 C21.5803444,4.23310939 21.4863675,4.12788657 20.613292,4.83735926 L7.33324708,15.6336374 C6.45612952,16.3410265 4.89186918,16.5691829 3.86014449,16.1482916 L0.802359088,14.9022867 C-0.231386606,14.4803536 -0.27180677,13.7000379 0.713434727,13.1676729 L24.6644029,0.219015031 Z M10.4324632,20.2457308 C11.4611563,20.6801656 11.8067487,21.8209477 11.1984253,22.7814966 C11.1984253,22.7814966 9.04605153,26.1819648 9.10870278,25.9923554 C9.16933303,25.8017041 6.99169669,20.3905424 6.99068619,20.3905424 C6.56425346,19.3310215 7.05737946,18.8215764 8.08607263,19.2560112 L10.4324632,20.2457308 Z" id="path-1"></path>
	</defs>
	<g id="Website" stroke="none" stroke-width="1" fill="none" fill-rule="evenodd">
		<g id="Design-System" transform="translate(-460.000000, -1290.000000)">
			<g id="Group-7" transform="translate(304.000000, 1268.000000)">
				<g id="icons/black/send" transform="translate(156.000000, 22.000000)">
					<mask id="mask-2" fill="white">
						<use xlink:href="#path-1"></use>
					</mask>
					<use id="Mask" fill="#2729FF" fill-rule="nonzero" xlink:href="#path-1"></use>
				</g>
			</g>
		</g>
	</g>
</svg>